<?xml version="1.0" encoding="UTF-8"?>
<!DOCTYPE svg PUBLIC "-//W3C//DTD SVG 1.1//EN" "http://www.w3.org/Graphics/SVG/1.1/DTD/svg11.dtd">
<!-- Creator: CorelDRAW 2017 -->
<svg xmlns="http://www.w3.org/2000/svg" xml:space="preserve" width="5.04346in" height="0.561874in" version="1.1" style="shape-rendering:geometricPrecision; text-rendering:geometricPrecision; image-rendering:optimizeQuality; fill-rule:evenodd; clip-rule:evenodd"
viewBox="0 0 1592.19 177.38"
 xmlns:xlink="http://www.w3.org/1999/xlink">
 <defs>
  <style type="text/css">
   <![CDATA[
    .fil0 {fill:#005E8E;fill-rule:nonzero}
    .fil1 {fill:#C20410;fill-rule:nonzero}
   ]]>
  </style>
 </defs>
 <g id="Layer_x0020_1">
  <metadata id="CorelCorpID_0Corel-Layer"/>
  <g id="_1628357868480">
   <g>
    <polygon class="fil0" points="77.1,24.29 23.98,24.29 23.98,54.2 67.51,54.2 67.51,76.32 23.98,76.32 23.98,121.82 -0,121.82 -0,2.18 77.1,2.18 "/>
    <polygon class="fil0" points="114.93,121.82 90.95,121.82 90.95,2.18 114.93,2.18 "/>
    <polygon class="fil0" points="237.5,2.18 237.5,123.99 229.51,123.99 161.65,50.03 161.65,121.82 137.66,121.82 137.66,0 145.48,0 213.52,73.6 213.52,2.18 "/>
    <path class="fil0" d="M305.35 45.68l-15.63 40.42 31.27 0 -15.63 -40.42zm23.98 60.54l-47.97 0 -6.57 15.59 -25.76 0 52.41 -121.81 7.99 0 52.23 121.81 -25.76 0 -6.57 -15.59z"/>
    <polygon class="fil0" points="473.4,2.18 473.4,123.99 465.4,123.99 397.54,50.03 397.54,121.82 373.56,121.82 373.56,0 381.38,0 449.42,73.6 449.42,2.18 "/>
    <path class="fil0" d="M600.1 29.73l-18.12 13.05c-7.82,-12.69 -18.83,-20.12 -33.57,-20.12 -21.85,0 -37.84,16.32 -37.84,39.52 0,23.02 15.99,39.15 37.84,39.15 14.75,0 25.76,-7.43 33.57,-20.12l18.12 13.05c-10.13,18.31 -29.13,29.73 -51.87,29.73 -34.82,0 -62.36,-26.83 -62.36,-62 0,-35.17 27.54,-61.99 62.53,-61.99 22.56,0 41.39,11.42 51.7,29.73z"/>
    <polygon class="fil0" points="640.41,121.82 616.43,121.82 616.43,2.18 640.41,2.18 "/>
    <path class="fil0" d="M708.27 45.68l-15.63 40.42 31.27 0 -15.63 -40.42zm23.98 60.54l-47.97 0 -6.57 15.59 -25.76 0 52.41 -121.81 7.99 0 52.23 121.81 -25.76 0 -6.57 -15.59z"/>
    <polygon class="fil0" points="800.46,99.7 851.8,99.7 851.8,121.82 776.48,121.82 776.48,2.18 800.46,2.18 "/>
    <polygon class="fil0" points="986.57,24.29 931.67,24.29 931.67,48.58 972,48.58 972,69.43 931.67,69.43 931.67,99.7 988.7,99.7 988.7,121.82 907.69,121.82 907.69,2.18 986.57,2.18 "/>
    <polygon class="fil0" points="1071.3,121.82 1046.43,82.12 1021.56,121.82 994.2,121.82 1033.1,60.91 996.51,2.18 1023.87,2.18 1046.43,39.88 1068.81,2.18 1095.99,2.18 1059.93,60.91 1098.48,121.82 "/>
    <path class="fil0" d="M1134.36 23.75l0 34.44 20.07 0c11.19,0 17.77,-7.07 17.77,-17.4 0,-9.97 -6.57,-17.04 -17.77,-17.04l-20.07 0zm62.35 17.04c0,23.02 -17.59,38.79 -42.28,38.79l-20.07 0 0 42.24 -23.98 0 0 -119.64 44.06 0c24.69,0 42.28,15.23 42.28,38.61z"/>
    <path class="fil0" d="M1235.79 58.01l20.07 0c11.19,0 17.76,-6.89 17.76,-17.22 0,-9.97 -6.57,-17.04 -17.76,-17.04l-20.07 0 0 34.26zm47.97 63.81l-30.38 -42.24 -17.59 0 0 42.24 -23.98 0 0 -119.64 44.06 0c24.69,0 42.28,15.23 42.28,38.61 0,15.41 -7.99,27.74 -20.61,34.08l33.22 46.95 -27 0z"/>
    <polygon class="fil0" points="1400.28,24.29 1345.39,24.29 1345.39,48.58 1385.71,48.58 1385.71,69.43 1345.39,69.43 1345.39,99.7 1402.41,99.7 1402.41,121.82 1321.4,121.82 1321.4,2.18 1400.28,2.18 "/>
    <path class="fil0" d="M1494.6 22.66l-16.34 12.87c-5.68,-8.7 -12.79,-13.77 -22.38,-13.77 -7.82,0 -14.57,3.63 -14.57,11.6 0,6.89 5.15,9.79 13.68,13.78l13.32 5.98c18.48,8.34 28.96,17.94 28.96,34.99 0,22.29 -17.76,35.89 -41.04,35.89 -20.25,0 -36.6,-10.51 -45.3,-26.46l16.52 -12.69c6.39,9.06 14.75,17.4 28.78,17.4 10.3,0 16.7,-4.89 16.7,-13.23 0,-7.79 -5.68,-10.51 -14.92,-14.87l-12.61 -5.8c-16.7,-7.79 -28.42,-17.58 -28.42,-34.44 0,-20.67 16.87,-33.9 38.91,-33.9 18.65,0 31.8,9.61 38.73,22.66z"/>
    <path class="fil0" d="M1589.52 22.66l-16.34 12.87c-5.68,-8.7 -12.79,-13.77 -22.38,-13.77 -7.82,0 -14.57,3.63 -14.57,11.6 0,6.89 5.15,9.79 13.68,13.78l13.32 5.98c18.48,8.34 28.96,17.94 28.96,34.99 0,22.29 -17.76,35.89 -41.04,35.89 -20.25,0 -36.59,-10.51 -45.3,-26.46l16.52 -12.69c6.39,9.06 14.75,17.4 28.78,17.4 10.3,0 16.7,-4.89 16.7,-13.23 0,-7.79 -5.68,-10.51 -14.92,-14.87l-12.61 -5.8c-16.7,-7.79 -28.42,-17.58 -28.42,-34.44 0,-20.67 16.87,-33.9 38.91,-33.9 18.65,0 31.8,9.61 38.73,22.66z"/>
   </g>
   <path class="fil1" d="M1300.95 176.82l-8.79 -12.17c3.34,-1.64 5.45,-4.84 5.45,-8.83 0,-6.06 -4.65,-10.01 -11.18,-10.01l-11.65 0 0 31.01 6.34 0 0 -10.95 4.65 0 8.03 10.95 7.14 0zm-19.83 -25.42l5.31 0c2.96,0 4.7,1.83 4.7,4.42 0,2.68 -1.74,4.46 -4.7,4.46l-5.31 0 0 -8.88zm44.59 -5.59l-20.86 0 0 31.01 21.42 0 0 -5.73 -15.08 0 0 -7.85 10.67 0 0 -5.4 -10.67 0 0 -6.3 14.52 0 0 -5.73zm26.07 31.01l6.81 0 -13.81 -31.57 -2.11 0 -13.86 31.57 6.81 0 1.74 -4.04 12.68 0 1.74 4.04zm-3.95 -9.26l-8.27 0 4.13 -10.48 4.14 10.48zm25.13 -21.75l-10.15 0 0 31.01 10.15 0c9.96,0 16.91,-6.44 16.91,-15.6 0,-9.3 -6.95,-15.41 -16.91,-15.41zm-0.05 5.73c6.25,0 10.43,3.57 10.43,9.68 0,5.97 -4.18,9.87 -10.43,9.87l-3.76 0 0 -19.54 3.76 0zm56.43 -5.73l-26.22 0 0 5.73 9.91 0 0 25.28 6.34 0 0 -25.28 9.96 0 0 -5.73zm18.14 -0.56c-9.12,0 -16.44,6.95 -16.44,16.07 0,9.11 7.33,16.07 16.44,16.07 9.11,0 16.54,-6.95 16.54,-16.07 0,-9.12 -7.42,-16.07 -16.54,-16.07zm0.05 5.87c5.68,0 9.96,4.23 9.96,10.2 0,6.01 -4.28,10.19 -9.96,10.19 -5.78,0 -9.96,-4.18 -9.96,-10.19 0,-5.97 4.18,-10.2 9.96,-10.2zm41.34 -5.31l-6.34 0 0 31.01 19.92 0 0 -5.73 -13.58 0 0 -25.28zm39.14 0l-20.86 0 0 31.01 21.42 0 0 -5.73 -15.08 0 0 -7.85 10.67 0 0 -5.4 -10.67 0 0 -6.3 14.52 0 0 -5.73zm26.07 31.01l6.81 0 -13.81 -31.57 -2.11 0 -13.86 31.57 6.81 0 1.74 -4.04 12.68 0 1.74 4.04zm-3.95 -9.26l-8.27 0 4.13 -10.48 4.14 10.48zm25.13 -21.75l-10.15 0 0 31.01 10.15 0c9.96,0 16.91,-6.44 16.91,-15.6 0,-9.3 -6.95,-15.41 -16.91,-15.41zm-0.05 5.73c6.25,0 10.43,3.57 10.43,9.68 0,5.97 -4.18,9.87 -10.43,9.87l-3.76 0 0 -19.54 3.76 0z"/>
  </g>
 </g>
</svg>
