<?xml version="1.0" encoding="utf-8"?>
<!-- Generator: Adobe Illustrator 21.0.2, SVG Export Plug-In . SVG Version: 6.00 Build 0)  -->
<svg version="1.1" id="Layer_1" xmlns="http://www.w3.org/2000/svg" xmlns:xlink="http://www.w3.org/1999/xlink" x="0px" y="0px"
	 width="250px" height="200px" viewBox="0 0 250 200" style="enable-background:new 0 0 250 200;" xml:space="preserve">
<style type="text/css">
	.st0{fill:#FFFFFF;}
	.st1{fill:#00000F;}
</style>
<g id="Layer_3_1_">
	<g id="Layer_3">
		<g>
			<g>
				<path class="st0" d="M187.7,177.7c-0.8,0-1.5-0.5-1.7-0.7l-0.4-0.4v-0.5c0-0.4,0-1.3,0.8-2.1l0,0l1.7-1.3
					c0.4-0.4,0.8-0.5,1.3-0.5c0.8,0,1.5,0.5,1.7,0.7c0.4,0.4,0.5,0.9,0.5,1.5c0,0.8-0.5,1.5-0.7,1.7l-0.1,0.1l-2,1.3
					C188.7,177.4,188.3,177.7,187.7,177.7z"/>
				<path class="st1" d="M187.5,174.7l1.7-1.3l0,0c0.4-0.4,0.9-0.1,1.2,0.1c0.4,0.4,0.1,0.9-0.1,1.2l-2,1.3
					c-0.4,0.4-0.9,0.1-1.2-0.1C187.1,175.7,187.1,175.1,187.5,174.7L187.5,174.7L187.5,174.7z"/>
				<path class="st0" d="M192.9,174c-0.5,0-1.1-0.3-1.3-0.4c-0.5-0.3-0.8-0.8-0.9-1.3c-0.1-0.7,0.1-1.5,0.7-2l1.7-1.6
					c0.4-0.4,0.8-0.5,1.5-0.5c0.5,0,1.1,0.3,1.3,0.4l0.1,0.1l0.1,0.1c0.5,0.5,0.9,1.3,0.3,2.8l-0.1,0.3l-1.9,1.7
					C194,173.7,193.4,174,192.9,174z"/>
				<path class="st1" d="M192.2,171.2l1.7-1.6l0,0c0.4-0.4,0.9-0.1,1.2,0c0.4,0.4,0.1,0.9,0,1.2l-1.7,1.6c-0.4,0.4-0.9,0.1-1.2,0
					C192,172.2,191.8,171.6,192.2,171.2L192.2,171.2L192.2,171.2z"/>
				<path class="st0" d="M196.7,170.2c-0.7,0-1.3-0.3-1.6-0.9l-0.1-0.1V169c-0.1-0.4-0.5-1.5,0.1-2.5l0.1-0.1l1.7-1.7
					c0.4-0.4,1.1-0.7,1.6-0.7c0.7,0,1.2,0.3,1.6,0.8c0.4,0.5,0.7,1.1,0.5,1.7c0,0.5-0.3,1.1-0.7,1.3l-1.5,1.6
					C197.9,170,197.3,170.2,196.7,170.2z"/>
				<path class="st1" d="M196.2,167.3l1.6-1.6l0,0c0.4-0.4,0.9-0.4,1.2,0c0.4,0.4,0.4,0.9,0,1.2l-1.6,1.7c-0.4,0.4-0.9,0.4-1.2,0
					C196.1,168.3,196,167.7,196.2,167.3L196.2,167.3L196.2,167.3z"/>
				<path class="st0" d="M200.9,166c-0.4,0-0.9-0.1-1.6-0.7c-0.5-0.5-0.7-1.2-0.7-1.6c0-0.4,0.1-0.9,0.7-1.6l1.6-1.7
					c0.7-0.7,1.2-0.7,1.6-0.7s0.9,0.1,1.6,0.7c0.9,0.9,0.9,2.1,0,3l-1.6,1.7C201.9,165.9,201.3,166,200.9,166z"/>
				<path class="st1" d="M200.3,163.2l1.6-1.7l0,0c0.4-0.4,0.8-0.4,1.2,0c0.4,0.4,0.4,0.8,0,1.2l-1.6,1.7c-0.4,0.4-0.8,0.4-1.2,0
					C199.9,164,199.9,163.6,200.3,163.2L200.3,163.2L200.3,163.2z"/>
				<path class="st0" d="M204.8,161.6c-0.5,0-0.9-0.1-1.3-0.4c-0.7-0.4-0.9-1.1-1.1-1.7c0-0.7,0.1-1.2,0.5-1.7l1.2-1.6
					c0.3-0.5,0.9-0.9,1.7-0.9c0.4,0,0.9,0.1,1.2,0.3c0.4,0.3,0.8,0.5,0.9,1.1c0.3,0.7,0.1,1.5-0.3,2.1l-1.3,1.9
					C206.2,161.2,205.6,161.6,204.8,161.6z"/>
				<path class="st1" d="M204,158.7l1.3-1.7l0,0c0.1-0.4,0.8-0.4,1.2-0.1c0.4,0.1,0.4,0.8,0.1,1.2l-1.3,2c-0.1,0.4-0.8,0.4-1.2,0.1
					C203.6,159.8,203.6,159.1,204,158.7L204,158.7L204,158.7z"/>
				<path class="st0" d="M207.9,157.1c-0.5,0-1.1-0.3-1.5-0.7l-0.3-0.3l-0.1-0.4c-0.3-0.8-0.1-1.6,0.1-2.1l1.2-2
					c0.3-0.7,1.1-1.1,1.9-1.1c0.5,0,0.9,0.1,1.3,0.4s0.8,0.7,0.9,1.2c0.1,0.7,0,1.3-0.4,1.9l-1.2,1.9
					C209.3,156.7,208.7,157.1,207.9,157.1z"/>
				<path class="st1" d="M207.4,154.3l1.2-2l0,0c0.1-0.4,0.8-0.5,1.2-0.1c0.4,0.1,0.5,0.8,0.1,1.2l-1.3,2c-0.1,0.4-0.8,0.5-1.2,0.1
					C207.2,155,207.2,154.6,207.4,154.3L207.4,154.3L207.4,154.3z"/>
				<path class="st0" d="M211.3,151.9c-0.3,0-0.5,0-0.8-0.1h-0.1l-0.1-0.1c-0.7-0.4-1.1-1.1-1.2-1.7c0-0.5,0.1-0.9,0.4-1.3l1.1-1.9
					c0.3-0.7,1.1-1.2,2-1.2c0.3,0,0.5,0,0.8,0.1c0.7,0.1,1.1,0.7,1.2,1.3c0.1,0.5,0.1,1.1,0,1.5v0.1l-1.2,2
					C212.9,151.5,212.3,151.9,211.3,151.9z"/>
				<path class="st1" d="M210.5,149.4l1.2-2l0,0c0.1-0.4,0.8-0.5,1.2-0.4c0.4,0.1,0.5,0.8,0.4,1.2l-1.2,2c-0.1,0.4-0.8,0.5-1.2,0.4
					C210.5,150.4,210.1,149.8,210.5,149.4L210.5,149.4L210.5,149.4z"/>
				<path class="st0" d="M213.8,146.9c-0.3,0-0.5,0-0.8-0.1l-0.3-0.1l-0.3-0.3c-1.2-1.2-0.9-2.3-0.7-2.8l0.9-2
					c0.3-0.7,1.1-1.2,2.1-1.2c0.3,0,0.5,0,0.8,0.1c1.2,0.4,1.6,1.9,1.2,2.9l-0.9,2.3C215.6,146.4,214.8,146.9,213.8,146.9z"/>
				<path class="st1" d="M213.1,144.4l0.9-2.1l0,0c0.1-0.4,0.8-0.5,1.2-0.4c0.4,0.1,0.5,0.8,0.4,1.2l-0.9,2.1
					c-0.1,0.4-0.8,0.5-1.2,0.4C213.1,145.2,212.8,144.8,213.1,144.4L213.1,144.4L213.1,144.4z"/>
				<path class="st0" d="M216,141.3c-0.3,0-0.5,0-0.7-0.1c-1.3-0.4-1.3-1.7-1.3-2.1v-0.3l0.9-2.4c0.3-0.8,1.1-1.3,1.9-1.3
					c0.3,0,0.5,0,0.7,0.1c1.1,0.4,1.6,1.5,1.2,2.7l-0.8,2.1C217.6,140.8,216.9,141.3,216,141.3z"/>
				<path class="st1" d="M215.3,139.1l0.8-2.1l0,0c0.1-0.4,0.5-0.5,0.9-0.4c0.4,0.1,0.5,0.5,0.4,0.9l-0.8,2.1
					c-0.1,0.4-0.5,0.5-0.9,0.4C215.3,139.9,215.3,139.5,215.3,139.1L215.3,139.1L215.3,139.1z"/>
				<path class="st0" d="M218,135.9c-0.5,0-1.1-0.3-1.5-0.8c-0.4-0.5-0.5-1.2-0.4-1.9l0.8-2.1c0.3-0.8,1.1-1.3,2.1-1.3
					c1.1,0,1.9,0.9,1.9,2.3v0.3l-0.9,2.4C219.8,135.4,219,135.9,218,135.9z"/>
				<path class="st1" d="M217.4,133.6l0.8-2.1l0,0c0.1-0.4,0.5-0.5,0.9-0.5c0.4,0,0.5,0.5,0.5,0.9l-0.8,2.1
					c-0.1,0.4-0.5,0.5-0.9,0.5C217.7,134.6,217.3,134,217.4,133.6L217.4,133.6L217.4,133.6z"/>
				<path class="st0" d="M219.8,130.9c-0.4,0-0.7-0.1-1.1-0.3l-0.3-0.1l-0.3-0.4c-0.3-0.4-0.9-1.2-0.5-2.1l0.5-2
					c0.3-0.8,0.9-1.6,2-1.6c0.3,0,0.5,0.1,0.8,0.3c0.7,0.3,1.1,0.7,1.3,1.3c0.1,0.4,0.1,0.9,0,1.3l-0.5,2.3l0,0
					C221.5,130.1,220.7,130.9,219.8,130.9z"/>
				<path class="st1" d="M219,128.2l0.5-2.1l0,0c0.1-0.4,0.5-0.8,0.9-0.5c0.4,0.1,0.8,0.5,0.5,0.9l-0.5,2.4
					c-0.1,0.4-0.5,0.8-0.9,0.5C219.3,129,218.9,128.6,219,128.2L219,128.2L219,128.2z"/>
				<path class="st0" d="M221.1,124.9c-0.1,0-0.4,0-0.5-0.1c-1.2-0.1-1.6-1.3-1.6-2.3v-0.1l0.4-2.4c0.1-1.1,0.9-1.9,1.9-1.9
					c0.3,0,0.4,0,0.7,0.1c0.5,0.1,1.1,0.4,1.3,0.9c0.3,0.5,0.4,1.1,0.1,1.7L223,123C222.9,124.1,222.1,124.9,221.1,124.9z"/>
				<path class="st1" d="M220.2,122.5l0.4-2.4l0,0c0-0.4,0.4-0.8,0.9-0.5c0.4,0,0.8,0.4,0.5,0.9l-0.4,2.4c0,0.4-0.4,0.8-0.9,0.5
					C220.5,123.6,220.2,122.9,220.2,122.5L220.2,122.5L220.2,122.5z"/>
				<path class="st0" d="M221.9,119.1c-0.7,0-1.5-0.3-1.9-0.9c-0.3-0.4-0.4-0.9-0.3-1.5l0.1-2.3c0-1.1,0.9-2,2.1-2
					c1.2,0,2.1,0.9,2.1,2.1l-0.1,2.5C224.1,118.1,223.1,119.1,221.9,119.1z"/>
				<path class="st1" d="M221.1,116.9l0.1-2.4l0,0c0-0.4,0.4-0.8,0.8-0.8c0.4,0,0.8,0.4,0.8,0.8l-0.1,2.4c0,0.4-0.4,0.8-0.8,0.8
					C221.4,117.7,221,117.3,221.1,116.9L221.1,116.9L221.1,116.9z"/>
				<path class="st0" d="M222.3,113.4c-1.2,0-2.1-0.9-2.1-2.1v-2.4c0-1.2,0.9-2.1,2.1-2.1s2.1,0.9,2.1,2.1v2.4
					C224.5,112.4,223.5,113.4,222.3,113.4z"/>
				<path class="st1" d="M221.5,111.2v-2.4l0,0c0-0.4,0.4-0.8,0.8-0.8c0.4,0,0.8,0.4,0.8,0.8v2.4c0,0.4-0.4,0.8-0.8,0.8
					S221.5,111.6,221.5,111.2L221.5,111.2L221.5,111.2z"/>
				<path class="st0" d="M222.3,107.5c-1.2,0-2.1-0.9-2.1-2.1V103c0-1.2,0.9-2.1,2.1-2.1s2.1,0.9,2.1,2.1v2.4
					C224.5,106.6,223.5,107.5,222.3,107.5z"/>
				<path class="st1" d="M221.5,105.4V103l0,0c0-0.4,0.4-0.8,0.8-0.8c0.4,0,0.8,0.4,0.8,0.8v2.4c0,0.4-0.4,0.8-0.8,0.8
					S221.5,105.8,221.5,105.4L221.5,105.4L221.5,105.4z"/>
				<path class="st0" d="M222.2,101.7c-1.1,0-2.1-0.8-2.1-1.9l-0.1-2.3c0-1.6,0.9-2.3,1.9-2.3c1.5,0,2.1,0.9,2.1,1.9l0.1,2.3
					C224.1,101,223.1,101.7,222.2,101.7z"/>
				<path class="st1" d="M221.4,99.8l-0.1-2.4l0,0c0-0.4,0.1-0.8,0.5-0.8s0.8,0.1,0.8,0.5l0.1,2.4c0,0.4-0.1,0.8-0.5,0.8
					S221.4,100.1,221.4,99.8L221.4,99.8L221.4,99.8z"/>
				<path class="st0" d="M221.4,96c-1.3,0-2-0.8-2.1-1.7l-0.4-2.4v-0.1c0-1.5,0.9-2.1,1.9-2.1c1.3,0,2,0.8,2.1,1.7l0.4,2.4v0.1
					C223.3,95.3,222.3,96,221.4,96z"/>
				<path class="st1" d="M220.6,94.1l-0.4-2.4l0,0c0-0.4,0.1-0.8,0.5-0.8s0.8,0.1,0.8,0.5l0.4,2.4c0,0.4-0.1,0.8-0.5,0.8
					S220.6,94.5,220.6,94.1L220.6,94.1L220.6,94.1z"/>
				<path class="st0" d="M219.8,90.4c-0.4-0.1-0.9-0.5-1.5-1.2l-0.1-0.1l-0.7-2.5v-0.1c0-1.1,0.5-1.9,1.5-2.1l0.3-0.1h0.3
					c1.1,0,1.9,0.5,2.1,1.5v0.1l0.5,2.4c0.1,0.5,0.1,1.1-0.3,1.6c-0.3,0.4-0.7,0.8-1.2,0.9l-0.5,0.1L219.8,90.4z"/>
				<path class="st1" d="M219.4,88.4l-0.5-2.1l0,0c0-0.4,0.1-0.8,0.5-0.9c0.4,0,0.8,0.1,0.9,0.5l0.5,2.4c0.1,0.4-0.1,0.8-0.5,0.9
					C220.1,89.1,219.7,88.8,219.4,88.4L219.4,88.4L219.4,88.4z"/>
				<path class="st0" d="M218.6,84.6c-0.9,0-1.7-0.7-1.9-1.5l-0.8-2c-0.1-0.5-0.1-1.1,0-1.5c0.3-0.5,0.7-0.9,1.2-1.2
					c0.3-0.1,0.5-0.1,0.7-0.1c0.9,0,1.6,0.5,1.9,1.3l0.8,2.1c0.4,1.2-0.1,2.3-1.2,2.7C219.1,84.6,218.9,84.6,218.6,84.6z"/>
				<path class="st1" d="M218.1,82.9l-0.8-2.1l0,0c-0.1-0.4,0-0.8,0.4-0.9c0.4-0.1,0.8,0,0.9,0.4l0.8,2.1c0.1,0.4,0,0.8-0.4,0.9
					C218.5,83.4,218.1,83.3,218.1,82.9L218.1,82.9L218.1,82.9z"/>
				<path class="st0" d="M216.8,79.2c-0.5,0-1.2-0.1-1.7-1.1l-0.1-0.1l-0.8-2.3c-0.1-0.5-0.1-1.1,0-1.5c0.3-0.5,0.7-0.9,1.2-1.2
					c0.3-0.1,0.5-0.1,0.7-0.1c0.9,0,1.6,0.5,1.9,1.3l0.8,2.1c0.4,1.2-0.1,2.3-1.2,2.7C217.2,79.2,217,79.2,216.8,79.2z"/>
				<path class="st1" d="M216.1,77.4l-0.8-2.1l0,0c-0.1-0.4,0-0.8,0.4-0.9s0.8,0,0.9,0.4l0.8,2.1c0.1,0.4,0,0.8-0.4,0.9
					C216.6,78,216.4,77.8,216.1,77.4L216.1,77.4L216.1,77.4z"/>
				<path class="st0" d="M214.5,73.9c-0.9,0-1.6-0.5-1.9-1.3l-0.9-2c-0.4-1.2,0.1-2.4,1.2-2.7c0.3-0.1,0.5-0.1,0.7-0.1
					c0.9,0,1.6,0.5,1.9,1.3l0.9,2c0.3,0.7,0.1,1.2,0,1.7c-0.3,0.5-0.7,0.8-1.2,0.9C214.9,73.9,214.8,73.9,214.5,73.9z"/>
				<path class="st1" d="M213.8,72.1l-0.9-2.1l0,0c-0.1-0.4,0-0.8,0.4-0.9s0.8,0,0.9,0.4l0.9,2.1c0.1,0.4,0,0.8-0.4,0.9
					S214,72.5,213.8,72.1L213.8,72.1L213.8,72.1z"/>
				<path class="st0" d="M211.9,68.7c-0.8,0-1.3-0.4-1.7-1.1l-1.2-2v-0.1c-0.3-0.8-0.1-1.7,0.4-2.3l0.3-0.3l0.3-0.1
					c0.3-0.1,0.5-0.1,0.8-0.1c0.5,0,1.2,0.3,1.5,0.5l0.1,0.1l1.3,2.3v0.1c0.3,0.8,0.1,1.7-0.4,2.3C212.8,68.6,212.3,68.7,211.9,68.7
					z"/>
				<path class="st1" d="M211.3,67.1l-1.2-2l0,0c-0.1-0.4,0-0.8,0.1-0.9c0.4-0.1,0.8,0,0.9,0.1l1.2,2c0.1,0.4,0,0.8-0.1,0.9
					C212,67.5,211.5,67.5,211.3,67.1L211.3,67.1L211.3,67.1z"/>
				<path class="st0" d="M208.9,63.8c-0.7,0-1.3-0.4-1.6-0.9l-1.5-2.1v-0.1c-0.4-1.3,0.1-2.3,0.8-2.5h0.1h0.1
					c0.3-0.1,0.7-0.1,0.9-0.1c0.7,0,1.3,0.3,1.6,0.8l1.5,2.1V61c0.4,1.3-0.1,2.1-0.7,2.5C209.7,63.7,209.3,63.8,208.9,63.8z"/>
				<path class="st1" d="M208.4,62.2l-1.3-2l0,0c-0.1-0.4-0.1-0.8,0.1-0.9c0.4-0.1,0.8-0.1,0.9,0.1l1.3,2c0.1,0.4,0.1,0.8-0.1,0.9
					C208.9,62.6,208.5,62.5,208.4,62.2L208.4,62.2L208.4,62.2z"/>
				<path class="st0" d="M205.5,58.9c-0.7,0-1.3-0.4-1.6-0.9l-1.3-1.7l-0.1-0.3c-0.4-1.3,0.1-2.3,0.8-2.5h0.1h0.1
					c0.3-0.1,0.7-0.1,0.9-0.1c0.7,0,1.2,0.3,1.6,0.8l1.5,1.9l0.1,0.3c0.4,1.3-0.1,2.1-0.7,2.5C206.3,58.7,205.9,58.9,205.5,58.9z"/>
				<path class="st1" d="M205.1,57.3l-1.3-1.7l0,0c-0.1-0.4-0.1-0.8,0.1-0.9c0.4-0.1,0.8-0.1,0.9,0.1l1.3,1.7
					c0.1,0.4,0.1,0.8-0.1,0.9C205.6,57.7,205.2,57.7,205.1,57.3L205.1,57.3L205.1,57.3z"/>
				<path class="st0" d="M202,54.5c-0.5,0-1.1-0.3-1.5-0.8L199,52c-0.7-0.7-0.7-2.1,0-2.8c0.3-0.3,0.8-0.5,1.5-0.5
					c0.7,0,1.1,0.1,1.5,0.5l1.6,1.7c0.5,0.5,0.7,1.9,0.1,2.5l0,0C203.1,54.2,202.6,54.5,202,54.5z"/>
				<path class="st1" d="M201.5,52.9l-1.6-1.7l0,0c-0.1-0.1-0.1-0.8,0-0.9c0.1-0.1,0.8-0.1,0.9,0l1.6,1.7c0.1,0.1,0.1,0.8,0,0.9
					C202.2,53.3,201.8,53.3,201.5,52.9L201.5,52.9L201.5,52.9z"/>
				<path class="st0" d="M198.2,50.1c-0.7,0-1.3-0.3-1.6-0.8l-1.5-1.5c-0.5-0.5-0.7-1.3-0.3-2.3l0.1-0.3l0.3-0.3
					c0.3-0.3,0.7-0.5,1.3-0.5c0.3,0,0.7,0,0.9,0.1l0.3,0.1l2,1.7c0.5,0.5,0.7,1.5,0.4,2.4C199.8,49.7,199,50.1,198.2,50.1z"/>
				<path class="st1" d="M197.7,48.5l-1.6-1.6l0,0c-0.1-0.1-0.1-0.5,0-0.9c0.1-0.1,0.5-0.1,0.9,0l1.7,1.6c0.1,0.1,0.1,0.5,0,0.9
					C198.6,48.9,197.8,48.9,197.7,48.5L197.7,48.5L197.7,48.5z"/>
				<path class="st0" d="M193.8,46.3c-0.4,0-0.9-0.1-1.3-0.4h-0.1l-1.9-1.7c-0.3-0.3-0.5-0.5-0.7-1.1c-0.1-0.7,0.1-1.3,0.5-1.7
					c0.1-0.1,0.7-0.7,1.5-0.7c0.5,0,1.1,0.3,1.3,0.7l1.7,1.6c0.7,0.7,0.9,1.9,0.1,2.7C195,45.9,194.5,46.3,193.8,46.3z"/>
				<path class="st1" d="M193.3,44.7l-1.7-1.6l0,0c-0.1-0.1-0.4-0.5,0-0.9c0.1-0.1,0.5-0.4,0.9,0l1.7,1.6c0.1,0.1,0.4,0.5,0,0.9
					C194.1,45,193.7,45,193.3,44.7L193.3,44.7L193.3,44.7z"/>
				<path class="st0" d="M189.6,42.6c-0.5,0-0.9-0.3-1.3-0.5l-1.6-1.2c-0.4-0.3-0.8-0.5-0.9-1.1c-0.3-0.5-0.1-1.1,0-1.6
					c0.3-0.7,0.9-1.1,1.7-1.1c0.4,0,0.8,0.1,1.2,0.4l2.1,1.5l0.1,0.1c0.5,0.5,0.9,1.6,0.3,2.7C190.8,42.3,190.1,42.6,189.6,42.6z"/>
				<path class="st1" d="M189.1,41l-1.7-1.3l0,0c-0.4-0.1-0.5-0.5-0.4-0.8c0.1-0.3,0.5-0.4,0.9-0.1l2,1.3c0.1,0.1,0.4,0.5,0.1,0.9
					C189.7,41.4,189.3,41.2,189.1,41L189.1,41L189.1,41z"/>
				<path class="st0" d="M184.7,39.1c-0.4,0-0.9-0.1-1.2-0.5l-2-1.2l-0.1-0.1c-0.1-0.1-0.7-0.7-0.7-1.5c0-0.4,0.1-0.9,0.5-1.2
					c0.4-0.4,0.9-0.7,1.5-0.7c0.4,0,0.8,0.1,1.1,0.4l2,1.2l0.1,0.1c0.1,0.1,0.7,0.7,0.7,1.5c0,0.4-0.1,0.8-0.4,1.1
					C185.9,38.9,185.3,39.1,184.7,39.1z"/>
				<path class="st1" d="M184.4,37.7l-2-1.2l0,0c-0.1-0.1-0.4-0.5-0.1-0.8c0.3-0.3,0.5-0.4,0.8-0.1l2,1.2c0.1,0.1,0.4,0.5,0.1,0.8
					C184.9,37.9,184.5,37.9,184.4,37.7L184.4,37.7L184.4,37.7z"/>
				<path class="st0" d="M179.6,36.2c-0.4,0-0.7-0.1-1.1-0.4l-2.1-1.2l-0.1-0.1c-0.7-0.7-0.9-1.6-0.4-2.4c0.3-0.5,0.9-0.9,1.6-0.9
					c0.4,0,0.8,0.1,1.2,0.4l1.9,1.1c0.5,0.3,0.9,0.7,1.1,1.2c0.1,0.7,0,1.3-0.5,1.7l-0.1,0.1l-0.1,0.1
					C180.6,35.9,180.2,36.2,179.6,36.2z"/>
				<path class="st1" d="M179.4,34.8l-2-1.2l0,0c-0.1-0.1-0.4-0.5-0.1-0.8c0.1-0.4,0.5-0.4,0.8-0.1l2,1.2c0.4,0.1,0.4,0.5,0.1,0.8
					C179.9,34.8,179.8,35,179.4,34.8L179.4,34.8L179.4,34.8z"/>
				<path class="st0" d="M174.6,33.4c-0.3,0-0.4,0-0.7-0.1h-0.1l-2-0.9c-0.5-0.3-0.9-0.7-1.1-1.2c-0.1-0.5,0-1.1,0.3-1.5
					c0.3-0.5,0.9-0.9,1.6-0.9c0.4,0,0.8,0.1,1.1,0.4l1.9,0.8c0.4,0.1,1.1,0.5,1.1,1.7v0.4l-0.3,0.4
					C175.8,33.3,175.1,33.4,174.6,33.4z"/>
				<path class="st1" d="M174.3,32.1l-2-0.9l0,0c-0.4-0.1-0.4-0.5-0.1-0.8c0.1-0.4,0.5-0.4,0.8-0.1l2.1,0.9c0.1,0,0.1,0.4,0.1,0.5
					C175,32.1,174.7,32.2,174.3,32.1L174.3,32.1L174.3,32.1z"/>
				<path class="st0" d="M169.3,31.2c-0.3,0-0.7-0.1-0.9-0.3l-2-0.8c-1.2-0.4-1.2-1.6-1.2-2c0-0.4,0.1-1.7,2.1-1.7h0.3l2.4,0.9
					c1.2,0.4,1.2,1.6,1.2,2C171.2,30.4,170.4,31.2,169.3,31.2z"/>
				<path class="st1" d="M169,29.7l-2.1-0.8l0,0c-0.4-0.1-0.4-0.4-0.4-0.8c0-0.4,0.4-0.4,0.8-0.4l2.1,0.8c0.4,0.1,0.4,0.4,0.4,0.8
					C169.8,29.7,169.4,30,169,29.7L169,29.7L169,29.7z"/>
				<path class="st0" d="M163.6,29.1l-2.1-0.5c-0.5,0-1.5-0.4-1.5-2.1c0-0.4,0.1-1.7,2.1-1.7h0.1l2.1,0.5c0.5,0,1.5,0.4,1.5,2.1v0.3
					l-0.1,0.3c-0.1,0.5-0.7,1.3-2,1.3h-0.1V29.1z"/>
				<path class="st1" d="M163.7,27.7l-2.1-0.5l0,0c-0.4,0-0.4-0.4-0.4-0.8c0-0.4,0.4-0.4,0.8-0.4l2.1,0.5c0.4,0,0.4,0.4,0.4,0.8
					C164.4,27.7,164,27.7,163.7,27.7L163.7,27.7L163.7,27.7z"/>
				<path class="st0" d="M158,27.6l-2.4-0.5c-0.5,0-0.9-0.3-1.2-0.7c-0.3-0.4-0.4-1.1-0.3-1.6c0.1-0.9,0.8-1.6,1.9-1.6
					c0.3,0,0.4,0,0.7,0.1l2.3,0.5c0.5,0,0.9,0.3,1.2,0.7c0.4,0.5,0.4,1.2,0.3,1.9l-0.1,0.5l-0.5,0.3c-0.3,0.1-0.7,0.5-1.3,0.5H158
					L158,27.6L158,27.6z"/>
				<path class="st1" d="M158.2,26.3l-2.4-0.5l0,0c-0.4,0-0.5-0.4-0.4-0.8c0-0.4,0.4-0.5,0.8-0.4l2.4,0.5c0.4,0,0.5,0.4,0.4,0.8
					C158.7,26,158.6,26.3,158.2,26.3L158.2,26.3L158.2,26.3z"/>
				<path class="st0" d="M152.3,26.4l-2.4-0.4c-0.7,0-1.2-0.4-1.5-1.1c-0.1-0.4-0.1-0.8,0-1.2c0.1-0.8,0.8-1.3,1.7-1.3
					c0.1,0,0.4,0,0.5,0.1l2.1,0.4c0.7,0,1.2,0.4,1.5,1.1c0.1,0.3,0.1,0.5,0.1,0.9c0,0.1,0,0.4-0.1,0.5
					C153.9,26,153.3,26.4,152.3,26.4L152.3,26.4z"/>
				<path class="st1" d="M152.5,25.1l-2.4-0.4l0,0c-0.4,0-0.5-0.4-0.4-0.5c0-0.4,0.4-0.5,0.5-0.4l2.4,0.4c0.4,0,0.5,0.4,0.4,0.5
					C153.1,24.8,152.9,25.1,152.5,25.1L152.5,25.1L152.5,25.1z"/>
				<path class="st0" d="M147.2,25.5c-0.1,0-0.4,0-0.5-0.1l-2.1-0.1c-1.1,0-1.7-0.9-1.7-1.9c0-1.1,0.9-1.9,1.9-1.9l2.5,0.1
					c1.1,0,1.7,0.9,1.7,1.9C148.8,24.8,148,25.5,147.2,25.5z"/>
				<path class="st1" d="M146.9,24l-2.4-0.1l0,0c-0.4,0-0.5-0.4-0.5-0.5c0-0.4,0.4-0.5,0.5-0.5l2.4,0.1c0.4,0,0.5,0.4,0.5,0.5
					C147.4,23.9,147.3,24.3,146.9,24L146.9,24L146.9,24z"/>
				<path class="st0" d="M138.8,25.1c-1.2,0-1.9-0.7-1.9-1.9c0-1.2,0.7-1.9,1.9-1.9h2.4c1.2,0,1.9,0.7,1.9,1.9
					c0,0.9-0.9,1.9-1.9,1.9H138.8z"/>
				<path class="st1" d="M141.2,23.7h-2.4l0,0c-0.4,0-0.5-0.1-0.5-0.5c0-0.4,0.1-0.5,0.5-0.5h2.4c0.4,0,0.5,0.1,0.5,0.5
					C141.7,23.5,141.5,23.7,141.2,23.7L141.2,23.7L141.2,23.7z"/>
				<path class="st0" d="M133,25.1c-1.2,0-1.9-0.7-1.9-1.9c0-1.2,0.7-1.9,1.9-1.9l2.3-0.1c1.2,0,2,0.7,2,1.9c0,1.3-0.9,2-1.9,2H133z
					"/>
				<path class="st1" d="M135.4,23.7H133l0,0c-0.4,0-0.5-0.1-0.5-0.5c0-0.4,0.1-0.5,0.5-0.5l2.4-0.1c0.4,0,0.5,0.1,0.5,0.5
					S135.8,23.7,135.4,23.7L135.4,23.7L135.4,23.7z"/>
				<path class="st0" d="M127.4,25.6c-0.8,0-1.9-0.7-1.9-1.7c0-0.8,0.7-1.9,1.7-1.9l2.3-0.1c0.8,0,2,0.7,2,1.7v0.5l-0.4,0.4
					c-0.1,0.3-0.5,0.8-1.3,0.8L127.4,25.6L127.4,25.6z"/>
				<path class="st1" d="M129.7,24l-2.3,0.3l0,0c-0.1,0-0.5-0.1-0.5-0.4c0-0.1,0.1-0.5,0.4-0.5l2.4-0.1c0.1,0,0.5,0.1,0.5,0.4
					C130.1,23.7,129.9,24,129.7,24L129.7,24L129.7,24z"/>
				<path class="st0" d="M121.7,26.5c-0.8,0-1.9-0.7-1.9-1.7c0-0.9,0.7-1.7,1.6-1.9l2.4-0.4h0.1c0.8,0,1.9,0.7,1.9,1.7
					c0,0.8-0.8,1.7-1.9,1.9L121.7,26.5L121.7,26.5z"/>
				<path class="st1" d="M123.8,24.8l-2.1,0.4l0,0c-0.1,0-0.5-0.1-0.5-0.4s0.1-0.5,0.4-0.5l2.4-0.4c0.1,0,0.5,0.1,0.5,0.4
					C124.5,24.4,124.2,24.8,123.8,24.8L123.8,24.8L123.8,24.8z"/>
				<path class="st0" d="M116.1,27.9c-1.3,0-1.9-0.9-1.9-1.7c0-1.5,0.9-1.9,1.6-1.9l2.4-0.5h0.1c1.3,0,1.9,0.9,1.9,1.7V26l-0.4,0.4
					c-0.1,0.3-0.5,0.7-1.2,0.8l-2.4,0.7C116.3,27.9,116.1,27.9,116.1,27.9z"/>
				<path class="st1" d="M118.3,26l-2.1,0.5l0,0c-0.1,0-0.5,0-0.5-0.4s0-0.5,0.4-0.5l2.4-0.5c0.1,0,0.5,0,0.5,0.4
					C118.8,25.6,118.7,25.9,118.3,26L118.3,26L118.3,26z"/>
				<path class="st0" d="M110.7,29.7c-1.3,0-1.9-0.9-1.9-1.7c0-1.1,0.7-1.7,1.5-1.9l2.3-0.8h0.3c1.3,0,1.9,0.9,1.9,1.7
					c0,0.7-0.4,0.9-0.5,1.2l-0.3,0.5l-0.5,0.1l-2.4,0.9h-0.3L110.7,29.7L110.7,29.7z"/>
				<path class="st1" d="M112.8,27.6l-2.1,0.8l0,0c-0.1,0-0.5,0-0.5-0.4c0-0.1,0-0.5,0.4-0.5l2.1-0.8c0.1,0,0.5,0,0.5,0.4
					C113.2,27.2,113,27.3,112.8,27.6L112.8,27.6L112.8,27.6z"/>
				<path class="st0" d="M105.1,31.6c-0.7,0-1.3-0.4-1.6-1.1c-0.1-0.4-0.1-0.9,0-1.5c0.1-0.4,0.5-0.8,0.9-0.9l1.9-0.8
					c0.3-0.1,0.5-0.3,0.8-0.3c0.5,0,1.1,0.3,1.5,0.7c0.3,0.4,0.4,0.9,0.4,1.3c-0.1,0.5-0.5,1.1-1.1,1.2l-1.9,0.8
					C105.7,31.6,105.4,31.6,105.1,31.6z"/>
				<path class="st1" d="M107.4,29.3l-2.1,0.9l0,0c-0.1,0.1-0.5,0-0.5-0.1c-0.1-0.1,0-0.5,0.1-0.5l2.1-0.9c0.1-0.1,0.5,0,0.5,0.1
					C107.8,28.9,107.5,29.3,107.4,29.3L107.4,29.3L107.4,29.3z"/>
				<path class="st0" d="M99.8,34c-0.7,0-1.3-0.4-1.6-1.1c-0.1-0.4-0.1-0.9,0-1.5c0.1-0.4,0.5-0.8,0.9-0.9l1.9-0.8
					c0.3-0.1,0.5-0.3,0.8-0.3c0.5,0,1.1,0.3,1.3,0.7c0.3,0.3,0.4,0.5,0.4,0.7c0.1,0.7-0.3,1.2-0.4,1.3l-0.3,0.4l-0.4,0.1l-2,0.9
					C100.4,34,100.1,34,99.8,34z"/>
				<path class="st1" d="M102.1,31.7l-2.1,0.9l0,0c-0.1,0.1-0.5,0-0.5-0.1c-0.1-0.1,0-0.5,0.1-0.5l2.1-0.9c0.1-0.1,0.5,0,0.5,0.1
					C102.5,31.3,102.2,31.4,102.1,31.7L102.1,31.7L102.1,31.7z"/>
				<path class="st0" d="M94.9,36.9c-0.8,0-1.7-0.5-1.7-1.5c0-1.1,0.5-1.6,0.9-1.7l1.9-1.1c0.3-0.1,0.5-0.3,0.9-0.3
					c0.8,0,1.7,0.5,1.7,1.5c0,0.4-0.1,1.1-0.5,1.5L98,35.4l-2.1,1.2C95.6,36.9,95.2,36.9,94.9,36.9z"/>
				<path class="st1" d="M97.1,34.4l-2,1.2l0,0c-0.1,0.1-0.5,0-0.5-0.1s0-0.5,0.1-0.5l2-1.2c0.1-0.1,0.5,0,0.5,0.1
					C97.2,33.8,97.2,34.2,97.1,34.4L97.1,34.4L97.1,34.4z"/>
				<path class="st0" d="M89.9,39.9c-0.7,0-1.3-0.4-1.6-1.1c-0.1-0.4-0.1-0.9,0-1.5c0.1-0.4,0.4-0.7,0.8-0.8l1.9-1.2
					c0.3-0.3,0.7-0.3,0.9-0.3c0.5,0,1.1,0.3,1.5,0.7c0.1,0.3,0.3,0.5,0.4,0.8c0.1,0.8-0.4,1.3-0.7,1.6l-0.1,0.1l-2,1.3
					C90.6,39.9,90.2,39.9,89.9,39.9z"/>
				<path class="st1" d="M92,37.3l-2,1.3l0,0c-0.1,0.1-0.5,0-0.5-0.1c-0.1-0.1,0-0.5,0.1-0.5l2-1.3c0.1-0.1,0.5,0,0.5,0.1
					C92.4,36.9,92.1,37.1,92,37.3L92,37.3L92,37.3z"/>
				<path class="st0" d="M85.3,43.4c-0.4,0-0.9-0.1-1.2-0.5c-0.7-0.7-0.7-1.7,0-2.4l0,0l1.7-1.3c0.3-0.3,0.7-0.4,1.1-0.4
					c0.4,0,0.9,0.1,1.2,0.5c0.4,0.4,0.7,0.9,0.5,1.5c-0.1,0.4-0.3,0.8-0.7,1.1L86.3,43C86,43.2,85.7,43.4,85.3,43.4z"/>
				<path class="st1" d="M87.2,40.6l-1.7,1.3l0,0c-0.1,0.1-0.4,0.1-0.5,0c-0.1-0.1-0.1-0.4,0-0.5l1.7-1.3c0.1-0.1,0.4-0.1,0.5,0
					C87.4,40.2,87.5,40.5,87.2,40.6L87.2,40.6L87.2,40.6z"/>
				<path class="st0" d="M80.7,47.3c-0.4,0-0.9-0.1-1.2-0.5C79.3,46.6,79,46,79,45.6c0-0.4,0.1-0.9,0.5-1.2l1.7-1.6
					c0.3-0.3,0.7-0.4,1.2-0.4c0.3,0,0.5,0.1,0.8,0.1c0.4,0.1,0.7,0.4,0.9,0.8c0.3,0.7,0.1,1.3-0.4,1.9l-2,1.7
					C81.7,47.1,81.1,47.3,80.7,47.3z"/>
				<path class="st1" d="M82.9,44.3L81,45.9l0,0c-0.1,0.1-0.4,0.1-0.5,0s-0.1-0.4,0-0.5l1.7-1.6c0.1-0.1,0.4-0.1,0.5,0
					C83,43.8,83,44.2,82.9,44.3L82.9,44.3L82.9,44.3z"/>
				<path class="st0" d="M76.8,51.2c-0.4,0-0.9-0.1-1.2-0.5c-0.3-0.3-0.5-0.8-0.5-1.2s0.1-0.9,0.5-1.2l1.6-1.7
					c0.4-0.4,0.8-0.5,1.2-0.5c0.4,0,0.9,0.1,1.2,0.5c0.4,0.4,0.5,0.9,0.4,1.5c-0.1,0.4-0.3,0.8-0.7,1.1L78,50.5
					C77.7,50.9,77.2,51.2,76.8,51.2z"/>
				<path class="st1" d="M78.5,48.1L77,49.7l0,0c-0.1,0.1-0.4,0.1-0.5,0c-0.1-0.1-0.1-0.4,0-0.5l1.6-1.7c0.1-0.1,0.4-0.1,0.5,0
					C78.8,47.6,78.8,48,78.5,48.1L78.5,48.1L78.5,48.1z"/>
				<path class="st0" d="M72.8,55.6c-0.4,0-0.9-0.1-1.2-0.5c-0.3-0.3-0.5-0.8-0.5-1.2s0.1-0.9,0.5-1.2l1.6-1.7
					c0.4-0.4,0.8-0.5,1.2-0.5s0.9,0.1,1.2,0.5c0.7,0.7,0.7,1.6,0,2.3l-1.5,1.7C73.7,55.3,73.2,55.6,72.8,55.6z"/>
				<path class="st1" d="M74.6,52.3l-1.6,1.9l0,0c-0.1,0.1-0.4,0.1-0.5,0c-0.1-0.1-0.1-0.4,0-0.5l1.6-1.7c0.1-0.1,0.4-0.1,0.5,0
					S74.8,52.1,74.6,52.3L74.6,52.3L74.6,52.3z"/>
				<path class="st0" d="M69.3,60.2c-0.4,0-0.9-0.1-1.2-0.5c-0.3-0.3-0.5-0.8-0.5-1.2s0.1-0.8,0.4-1.1l1.3-2l0.1-0.1
					c0.3-0.3,0.8-0.5,1.2-0.5c0.4,0,0.8,0.1,1.1,0.3c0.5,0.3,0.8,0.8,0.8,1.3c0,0.4-0.3,0.9-0.5,1.2l-1.3,1.9l-0.1,0.1
					C70.3,59.9,69.7,60.2,69.3,60.2z"/>
				<path class="st1" d="M70.9,56.8l-1.3,2l0,0c-0.1,0.1-0.4,0.1-0.5,0s-0.1-0.4,0-0.5l1.3-2c0.1-0.1,0.4-0.1,0.5,0
					C71.2,56.4,71.2,56.6,70.9,56.8L70.9,56.8L70.9,56.8z"/>
				<path class="st0" d="M65.4,64.8L65,64.4c-0.5-0.5-0.5-1.2-0.5-1.5v-0.4l1.5-2.4l0.1-0.1c0.5-0.5,1.2-0.5,1.5-0.5
					c0.8,0,1.3,0.7,1.6,1.3c0.1,0.5,0,1.1-0.4,1.5l-1.2,2l-0.1,0.1C66.8,65,66.2,65,65.9,65L65.4,64.8L65.4,64.8z"/>
				<path class="st1" d="M67.6,61.4l-1.2,2l0,0c-0.1,0.1-0.4,0.1-0.5,0.1c-0.1-0.1-0.1-0.4-0.1-0.5l1.2-2c0.1-0.1,0.4-0.1,0.5-0.1
					C67.6,60.9,67.9,61.3,67.6,61.4L67.6,61.4L67.6,61.4z"/>
				<path class="st0" d="M63,69.9c-0.3,0-1.5-0.1-1.5-1.9v-0.4l1.5-2.5l0.1-0.1c0.5-0.5,1.2-0.5,1.5-0.5c0.4,0,1.5,0.1,1.5,2v0.4
					l-1.5,2.4l-0.1,0.1C63.9,69.9,63.2,69.9,63,69.9z"/>
				<path class="st1" d="M64.7,66.4l-1.2,2l0,0c-0.1,0.1-0.4,0.1-0.5,0.1s-0.1-0.4-0.1-0.5l1.2-2.1c0.1-0.1,0.4-0.1,0.5-0.1
					C64.7,65.8,64.7,66.3,64.7,66.4L64.7,66.4L64.7,66.4z"/>
				<path class="st0" d="M60.5,75.2c-0.3,0-1.5-0.1-1.5-1.9v-0.3l1.1-2.3c0.1-0.4,0.5-1.1,1.7-1.1c0.5,0,1.1,0.3,1.3,0.8
					c0.3,0.5,0.4,1.1,0.1,1.6l-1.1,2C62.1,74.7,61.7,75.2,60.5,75.2z"/>
				<path class="st1" d="M62.1,71.6L61,73.7l0,0c0,0.1-0.4,0.1-0.5,0.1c-0.1,0-0.1-0.4-0.1-0.5l0.9-2.1c0-0.1,0.4-0.1,0.5-0.1
					S62.2,71.3,62.1,71.6L62.1,71.6L62.1,71.6z"/>
				<path class="st0" d="M58.5,80.4c-0.7,0-0.9-0.3-1.2-0.5C57,79.4,56.9,79,57,78.6v-0.3l0.1-0.1l0.8-2c0.1-0.4,0.5-1.1,1.7-1.1
					c0.7,0,1.2,0.4,1.5,0.9c0.1,0.4,0.1,0.9-0.1,1.5l-0.7,1.9C60.1,79.7,59.7,80.4,58.5,80.4z"/>
				<path class="st1" d="M59.7,76.8l-0.8,2.1l0,0c0,0.1-0.1,0.1-0.4,0.1c-0.3,0-0.1-0.1-0.1-0.4l0.8-2.1c0-0.1,0.1-0.1,0.4-0.1
					C59.8,76.4,59.8,76.6,59.7,76.8L59.7,76.8L59.7,76.8z"/>
				<path class="st0" d="M57.3,85.9c-0.3,0-0.5,0-0.8-0.3c-0.4-0.1-0.7-0.4-0.9-0.8c-0.1-0.4-0.1-0.8,0.1-1.3l0.4-1.7
					c0.1-0.8,0.8-1.3,1.5-1.3c0.3,0,0.8,0.1,1.2,0.5l2.3,2.3h-2l-0.4,1.5C58.6,85.3,57.9,85.9,57.3,85.9z"/>
				<path class="st1" d="M57.9,82.2l-0.5,2.1c0,0.1-0.1,0.4-0.4,0.1c-0.1,0-0.4-0.1-0.1-0.4l0.5-2.1c0-0.1,0.1-0.4,0.4-0.1
					C57.7,81.8,57.9,82.1,57.9,82.2L57.9,82.2L57.9,82.2z"/>
				<path class="st0" d="M55.7,91.6c-0.3,0-0.5,0-0.8-0.3c-0.4-0.1-0.7-0.4-0.9-0.8c-0.1-0.4-0.1-0.8,0.1-1.3l0.4-2
					c0.1-0.8,0.8-1.3,1.5-1.3c0.3,0,0.8,0.1,1.2,0.5l0.4,0.4V87c0.1,0.1,0.1,0.4,0.1,0.7v0.1l-0.5,2.4C57,91,56.4,91.6,55.7,91.6z"
					/>
				<path class="st1" d="M56.4,87.6L55.8,90c0,0.1-0.1,0.4-0.4,0.1c-0.1,0-0.4-0.1-0.1-0.4l0.5-2.4c0-0.1,0.1-0.4,0.4-0.1
					C56.2,87.4,56.4,87.5,56.4,87.6L56.4,87.6z"/>
				<path class="st0" d="M54.6,97.3c-0.3,0-0.7-0.1-1.1-0.4c-0.5-0.3-0.7-0.8-0.7-1.1c0-0.3,0-0.5,0.1-0.9l0.4-2
					c0.1-0.8,0.7-1.5,1.5-1.5c0.3,0,0.8,0.1,1.2,0.5c0.5,0.5,0.7,1.1,0.5,1.6l-0.4,2.3C56,96.7,55.4,97.3,54.6,97.3z"/>
				<path class="st1" d="M55.2,93.3l-0.4,2.4c0,0.1-0.1,0.4-0.4,0.1c-0.1-0.1-0.4-0.1-0.1-0.4l0.4-2.4c0-0.1,0.1-0.4,0.4-0.1
					C55.3,93.2,55.2,93.2,55.2,93.3L55.2,93.3z"/>
				<path class="st0" d="M53.8,103.3c-1.1,0-1.7-0.7-1.7-1.7l0.1-2.5c0-0.8,0.7-1.6,1.7-1.6c1.1,0,1.7,0.9,1.7,1.7l-0.1,2.5
					C55.6,102.4,54.9,103.3,53.8,103.3z"/>
				<path class="st1" d="M54.4,99.2l-0.1,2.4c0,0.1-0.1,0.4-0.4,0.4c-0.3,0-0.4-0.1-0.4-0.4l0.1-2.4c0-0.1,0.1-0.4,0.4-0.4
					C54.2,98.8,54.4,99,54.4,99.2L54.4,99.2z"/>
				<path class="st0" d="M53.6,109c-1.1,0-1.7-0.7-1.7-1.7v-2.4c0-0.8,0.7-1.7,1.7-1.7c1.1,0,1.7,0.7,1.7,1.7v2.4
					C55.3,108.1,54.6,109,53.6,109z"/>
				<path class="st1" d="M54,104.9v2.4c0,0.1-0.1,0.4-0.4,0.4c-0.3,0-0.4-0.1-0.4-0.4v-2.4c0-0.1,0.1-0.4,0.4-0.4
					C53.8,104.5,54,104.6,54,104.9L54,104.9z"/>
				<path class="st0" d="M54,114.8c-0.3,0-0.7-0.1-0.9-0.3l-0.7-0.4l-0.1-3.3c0-0.4,0.1-0.8,0.4-1.2V109H54c0.8,0,1.5,0.7,1.5,1.6
					l0.1,2.3c0,0.4-0.1,0.7-0.3,1.1l-0.4,0.8H54L54,114.8L54,114.8z"/>
				<path class="st1" d="M54,110.7l0.1,2.4c0,0.1-0.1,0.4-0.1,0.4c-0.1,0-0.4-0.1-0.4-0.1l-0.1-2.5c0-0.1,0.1-0.4,0.4-0.4
					C53.8,110.3,54,110.4,54,110.7L54,110.7z"/>
				<path class="st0" d="M54.4,120.4c-1.7,0-1.7-1.5-1.7-1.5l-0.1-2.3c0-1.7,1.5-1.9,1.5-1.9c0.3,0,0.5,0.1,0.7,0.1h1.1l0.3,3.6
					C55.8,120.4,54.4,120.4,54.4,120.4z"/>
				<path class="st1" d="M54.4,116.3l0.1,2.4c0,0.1,0,0.4-0.1,0.4c-0.1,0-0.4,0-0.4-0.1l-0.1-2.4c0-0.1,0-0.4,0.1-0.4
					C54.1,116.2,54.2,116.3,54.4,116.3L54.4,116.3z"/>
				<path class="st0" d="M55.4,126.2c-1.3,0-1.6-0.8-1.7-1.2l0,0l-0.4-2.7v-0.1c0-1.7,1.5-1.7,1.5-1.7c0.7,0,1.1,0.4,1.3,0.7
					l0.3,0.3l0.5,2.9v0.1C56.9,126.2,55.4,126.2,55.4,126.2z"/>
				<path class="st1" d="M55.2,122.1l0.4,2.4c0,0.1,0,0.4-0.1,0.4c-0.1,0-0.4,0-0.4-0.1l-0.4-2.5c0-0.1,0-0.4,0.1-0.4
					C54.9,121.9,55,122,55.2,122.1L55.2,122.1z"/>
				<path class="st0" d="M56.8,131.7c-1.2,0-1.6-0.8-1.7-1.2l0,0l-0.5-2.5v-0.1c0-1.7,1.5-1.7,1.5-1.7h0.3l0.3,0.1
					c0.5,0.3,0.7,0.5,0.9,0.9v0.1l0.7,2.4v0.1C58.2,131.7,56.8,131.7,56.8,131.7z"/>
				<path class="st1" d="M56.4,127.8l0.5,2.1c0,0.1,0,0.4-0.1,0.4c-0.1,0-0.4,0-0.4-0.1l-0.5-2.4c0-0.1,0-0.4,0.1-0.4
					C56.2,127.6,56.2,127.6,56.4,127.8L56.4,127.8z"/>
				<path class="st0" d="M58.6,137.1c-1.1,0-1.5-0.5-1.6-1.1l-0.9-2.4v-0.3c0-1.7,1.5-1.7,1.5-1.7c0.3,0,0.4,0,0.7,0.1h0.7l1.2,3.2
					v0.3c0,0.4-0.1,0.7-0.3,0.9l-0.4,0.8h-0.8V137.1z"/>
				<path class="st1" d="M57.9,133.3l0.8,2.1c0,0.1,0,0.1-0.1,0.4c-0.1,0-0.4,0-0.4-0.1l-0.8-2.1c0-0.1,0-0.4,0.1-0.4
					C57.7,133.1,57.7,133.3,57.9,133.3L57.9,133.3z"/>
				<path class="st0" d="M60.1,142.5l-0.4-0.4l-0.4-0.3l-0.1-0.4l-1.1-2.4v-0.3c0-0.4,0.1-0.7,0.3-0.9l0.4-0.8h0.8
					c0.5,0,0.9,0.1,1.3,0.5l0.1,0.1l1.2,2.7v0.3c0,0.4-0.1,0.7-0.3,0.9l-0.1,0.1l-0.5,0.5h-0.7h-0.5V142.5z"/>
				<path class="st1" d="M59.8,138.7l0.9,2.1c0,0.1,0,0.1-0.1,0.4c-0.1,0.1-0.1,0-0.4-0.1l-0.9-2.1c0-0.1,0-0.1,0.1-0.4
					C59.7,138.6,59.7,138.6,59.8,138.7L59.8,138.7z"/>
				<path class="st0" d="M63,147.8c-0.4,0-0.7-0.1-0.9-0.3l-0.4-0.3l-1.2-2.8v-0.3c0-0.4,0.1-0.7,0.3-0.9l0.1-0.4l0.4-0.1
					c0.3-0.1,0.5-0.1,0.7-0.1c0.1,0,0.4,0,0.7,0.1H63l1.3,3.2v0.3c0,0.4-0.1,0.7-0.3,0.9l-0.4,0.8L63,147.8L63,147.8z"/>
				<path class="st1" d="M62.2,144l0.9,2.1c0,0.1,0,0.1-0.1,0.4c-0.1,0-0.1,0-0.4-0.1l-0.9-2.1c0-0.1,0-0.1,0.1-0.4
					C62.1,143.7,62.1,144,62.2,144L62.2,144z"/>
				<path class="st0" d="M65.6,152.9h-0.3h-0.8l-0.3-0.7L63,150v-0.8c0-0.8,0.7-1.5,1.5-1.5c0.7,0,1.2,0.4,1.5,0.9l1.3,2.3v2.1h-1.3
					L65.6,152.9L65.6,152.9z"/>
				<path class="st1" d="M64.7,149.2l1.2,2c0,0.1,0,0.1,0,0.4c0,0.1-0.1,0-0.4,0l-1.2-2c0-0.1,0-0.1,0-0.4S64.7,149,64.7,149.2
					L64.7,149.2z"/>
				<path class="st0" d="M68.2,157.8l-2-2.9v-0.8c0-0.8,0.7-1.5,1.5-1.5c0.3,0,0.5,0.1,0.9,0.3l0.3,0.1l1.7,2.7v2.1H68.2z"/>
				<path class="st1" d="M67.9,154.1l1.3,2c0,0.1,0,0.1,0,0.4c-0.1,0-0.1,0-0.4,0l-1.3-2c0-0.1,0-0.1,0-0.4
					C67.5,153.9,67.6,153.9,67.9,154.1L67.9,154.1z"/>
				<path class="st0" d="M71.5,162.2l-2-2.7v-2.1h1.5c0.3,0,0.5,0.1,0.7,0.1l0.4,0.1l1.9,2.4v2.1L71.5,162.2L71.5,162.2z"/>
				<path class="st1" d="M71.2,158.7l1.3,1.7c0,0,0,0.1,0,0.4c0,0-0.1,0-0.4,0l-1.3-1.7c0,0,0-0.1,0-0.4
					C70.8,158.6,71.2,158.7,71.2,158.7L71.2,158.7z"/>
				<path class="st0" d="M76.1,166.7h-0.3h-0.7l-0.3-0.5l-1.9-2.4v-1.5l0.8-0.8h0.7c0.4,0,0.7,0.1,0.8,0.3l0,0l2.4,2.5v2.3h-1.3
					h-0.3L76.1,166.7L76.1,166.7z"/>
				<path class="st1" d="M74.8,163.2l1.6,1.7c0,0,0,0.1,0,0.4c0,0.1-0.1,0-0.4,0l-1.6-2c0,0,0-0.1,0-0.4
					C74.5,162.8,74.6,163.2,74.8,163.2L74.8,163.2z"/>
				<path class="st0" d="M79.8,170.5l-2.5-2.4V168l-0.3-0.3l0.3-0.9l0.4-0.8h0.9c0.5,0,0.9,0.3,1.2,0.5l2,1.9v2h-2V170.5z"/>
				<path class="st1" d="M78.8,167.5l1.7,1.6v0.1h-0.1l-1.7-1.6v-0.1C78.5,167.3,78.8,167.3,78.8,167.5L78.8,167.5z"/>
				<path class="st0" d="M84.1,174.5l-2.5-2.4v-2l1.3-0.1c0.3,0,0.8,0,1.1,0.5l2,1.9v2h-1.9V174.5z"/>
				<path class="st1" d="M83,171.4l1.7,1.6v0.1h-0.1l-1.7-1.6v-0.1C82.9,171.4,82.9,171.2,83,171.4L83,171.4z"/>
				<path class="st0" d="M88,177.9v-0.7l-1.5-1.1l-0.7-0.7l0.3-0.7c0-0.3,0.1-0.4,0.3-0.7l0.1-0.1l0.1-0.3l0,0l0.1-0.1h0.8
					c0.5,0,0.9,0.3,1.2,0.7l1.7,1.2l0.7,0.7l-0.3,0.9l-0.4,0.8h-0.7c-0.1,0-0.3,0-0.4,0L88,177.9L88,177.9z"/>
				<path class="st1" d="M87.5,175.1l2,1.3c0,0,0.1,0.1,0,0.1c0,0-0.1,0.1-0.1,0l-2-1.3c0,0-0.1-0.1,0-0.1
					C87.2,174.9,87.5,174.9,87.5,175.1L87.5,175.1z"/>
				<path class="st0" d="M92.7,181.1v-0.7l-1.5-0.9l-0.8-0.8l0.3-0.9l0.4-0.8h0.3c0.3-0.1,0.5-0.3,0.7-0.3c0.4,0,0.9,0.3,1.2,0.7
					l1.7,1.1l0.8,0.8l-0.3,0.9c-0.1,0.4-0.5,0.7-0.8,0.8c-0.3,0.1-0.4,0.1-0.5,0.1L92.7,181.1L92.7,181.1z"/>
				<path class="st1" d="M92.1,178.5l2,1.2c0,0,0.1,0.1,0,0.1s-0.1,0.1-0.1,0l-2-1.2c0,0-0.1-0.1,0-0.1
					C92,178.2,92.1,178.2,92.1,178.5L92.1,178.5z"/>
				<path class="st0" d="M97.7,184v-0.7l-1.6-0.9l-0.8-0.8l0.3-0.9c0.3-0.5,0.7-0.8,1.3-0.8h0.7l2.4,1.5l0.8,0.8l-0.3,0.9l-0.4,0.8
					h-0.7c-0.1,0-0.3,0.1-0.4,0.1L97.7,184L97.7,184z"/>
				<path class="st1" d="M97.2,181.4l2,1.2c0,0,0.1,0.1,0,0.1c0,0-0.1,0.1-0.1,0l-2.1-1.2c0,0-0.1-0.1,0-0.1S97.1,181.4,97.2,181.4
					L97.2,181.4z"/>
				<polygon class="st0" points="102.9,186.3 102.9,185.9 101.3,185.1 100.5,184.3 100.8,183.4 101.2,182.6 102.2,182.6 
					102.5,182.6 105.1,183.8 105.9,184.6 105.7,185.5 105.3,186.3 104.9,186.3 104.7,186.3 104.2,186.3 				"/>
				<path class="st1" d="M102.2,183.9l2.1,0.9c0,0,0.1,0.1,0,0.1s-0.1,0.1-0.1,0l-2.1-0.9c0,0-0.1-0.1,0-0.1
					C102.2,183.9,102.2,183.9,102.2,183.9L102.2,183.9z"/>
				<path class="st0" d="M108.2,188l-0.8-0.3h-0.8l-0.1-0.4l-0.5-0.3l0.3-1.1c0-0.1,0.1-0.3,0.1-0.5l0.5-1.1l3.4,1.3l0.8,0.8
					l-0.3,0.9c-0.1,0.3-0.3,0.4-0.5,0.7l-0.3,0.3h-0.7h-1.3L108.2,188z"/>
				<path class="st1" d="M107.5,186.1l2.1,0.8c0,0,0.1,0.1,0,0.1c0,0-0.1,0.1-0.1,0l-2.1-0.8C107.5,186.4,107.4,186.4,107.5,186.1
					L107.5,186.1L107.5,186.1z"/>
				<path class="st0" d="M114.6,190.1l-0.3-0.1l-1.5-0.4h-0.7l-0.4-0.8l-0.4-0.8l0.7-0.8l0.5-0.5l2.7,0.7h0.7l0.4,0.8
					c0.1,0.3,0.1,0.5,0,0.9v1.1H115L114.6,190.1L114.6,190.1z"/>
				<path class="st1" d="M113,188.1l2.1,0.5c0,0,0.1,0,0,0.1c0,0,0,0.1-0.1,0l-2-0.5C113,188.3,112.8,188.3,113,188.1L113,188.1
					L113,188.1z"/>
				<path class="st0" d="M120.5,191.7l-0.1-0.1l-1.9-0.4h-1.2l-0.1-1.3c0-0.1,0-0.4,0.1-0.5v-0.9h1.3h1.3v0.4l1.2,0.3h0.8l0.4,0.8
					c0.1,0.3,0.1,0.5,0,0.9v1.1H121h-0.5V191.7z"/>
				<path class="st1" d="M118.7,189.7l2.4,0.5c0,0,0.1,0,0,0.1c0,0,0,0.1-0.1,0l-2.4-0.5C118.4,189.9,118.4,189.7,118.7,189.7
					C118.4,189.7,118.7,189.5,118.7,189.7L118.7,189.7z"/>
				<path class="st0" d="M125.8,192.4l-1.1-0.1h-0.7h-0.8l-0.1-0.3l-0.5-0.1l0.1-0.8l-1.1-2l1.6,0.3l0.1-0.1l3.2,0.5h0.8l0.4,0.8
					l0.4,0.8l-0.5,0.5c-0.3,0.4-0.7,0.7-1.2,0.7H126L125.8,192.4z"/>
				<path class="st1" d="M124.2,190.7l2.4,0.4c0,0,0.1,0,0,0.1c0,0,0,0.1-0.1,0l-2.4-0.4C124.2,191.1,124.1,190.9,124.2,190.7
					C124.2,190.9,124.2,190.7,124.2,190.7L124.2,190.7z"/>
				<polygon class="st0" points="131.9,193 131.8,193 126.9,192.8 129.5,190.1 133.8,190.4 133.8,193 132.4,193 				"/>
				<path class="st1" d="M130.1,191.4l2.4,0.1c0,0,0,0,0,0.1s0,0-0.1,0l-2.4-0.1C129.9,191.6,129.9,191.6,130.1,191.4
					C129.9,191.4,129.9,191.4,130.1,191.4L130.1,191.4z"/>
				<polygon class="st0" points="135.8,193.2 135.8,191.8 134.4,192 134.4,190.5 138.1,190.5 138.1,193.2 				"/>
				<path class="st1" d="M135.8,191.8h2.4l0,0l0,0H135.8C135.8,192,135.8,192,135.8,191.8L135.8,191.8L135.8,191.8z"/>
				<polygon class="st0" points="141.6,191.8 140.3,192 140.3,190.7 143.9,190.4 144.1,193 141.7,193.2 				"/>
				<path class="st1" d="M141.6,191.8l2.4-0.1l0,0l0,0L141.6,191.8C141.6,192,141.6,192,141.6,191.8L141.6,191.8L141.6,191.8z"/>
				<polygon class="st0" points="146,192.8 146,191.4 146,190.1 147.3,190.1 147.4,190.1 149.7,190 149.9,192.6 148,192.8 
					148,192.8 147.3,192.8 				"/>
				<path class="st1" d="M147.4,191.4l2.4-0.1l0,0l0,0L147.4,191.4C147.3,191.6,147.3,191.4,147.4,191.4
					C147.3,191.4,147.3,191.4,147.4,191.4L147.4,191.4z"/>
				
					<rect x="153.1" y="189.1" transform="matrix(0.9864 -0.1643 0.1643 0.9864 -29.1834 27.942)" class="st0" width="2.4" height="2.7"/>
				<path class="st1" d="M153.1,190.7l2.4-0.4l0,0l0,0L153.1,190.7L153.1,190.7L153.1,190.7L153.1,190.7z"/>
				<polygon class="st0" points="158.7,189.3 157.4,189.5 157.4,188.3 160.6,187.5 161.1,190.1 159,190.7 				"/>
				<path class="st1" d="M158.7,189.3l2.1-0.5l0,0l0,0L158.7,189.3C158.7,189.5,158.7,189.5,158.7,189.3L158.7,189.3L158.7,189.3z"
					/>
				<polygon class="st0" points="163.1,189.1 162.9,187.7 162.9,186.4 164.1,186.4 166,185.7 167,188.1 165.7,188.7 165.7,189.1 
					164.4,189.1 				"/>
				<path class="st1" d="M164.4,187.7l2.1-0.8l0,0l0,0L164.4,187.7C164.4,187.9,164.1,187.7,164.4,187.7
					C164.1,187.7,164.1,187.7,164.4,187.7L164.4,187.7z"/>
				<polygon class="st0" points="169.6,187.1 169.6,185.7 169,184.6 171.2,183.6 172.2,186 170.1,186.9 169.6,185.9 169.7,187.1 
									"/>
				<path class="st1" d="M169.6,185.7l2.1-0.9l0,0l0,0L169.6,185.7C169.8,185.7,169.6,185.7,169.6,185.7L169.6,185.7L169.6,185.7z"
					/>
				
					<rect x="174.9" y="181.6" transform="matrix(0.9161 -0.401 0.401 0.9161 -58.5981 85.9261)" class="st0" width="2.3" height="2.7"/>
				<path class="st1" d="M175,183.5l2.1-0.9l0,0l0,0L175,183.5L175,183.5L175,183.5L175,183.5z"/>
				
					<rect x="180" y="178.7" transform="matrix(0.8412 -0.5407 0.5407 0.8412 -68.6029 126.5311)" class="st0" width="2.3" height="2.7"/>
				<polygon class="st1" points="180.2,180.7 182,179.5 182,179.5 182,179.5 				"/>
				
					<rect x="184.7" y="175.7" transform="matrix(0.8065 -0.5912 0.5912 0.8065 -68.6803 144.1792)" class="st0" width="2.5" height="2.7"/>
				<polygon class="st1" points="184.9,177.7 186.9,176.2 186.9,176.2 				"/>
			</g>
		</g>
		<g>
			<polygon class="st0" points="134.7,108.3 139.9,104.7 187.9,176.2 185.7,177.8 			"/>
			<polygon class="st1" points="139.5,106.6 186.8,177 136.6,108.6 			"/>
		</g>
		<g>
			<polygon class="st0" points="134.7,105 206.3,58.2 207.7,60.3 139.3,111.5 			"/>
			<polygon class="st1" points="136.6,105.4 207,59.3 139.6,109.7 			"/>
		</g>
		<circle class="st0" cx="75.6" cy="72.9" r="70.9"/>
		<circle class="st0" cx="137.9" cy="107.5" r="47.1"/>
		<g>
			<g>
				<path class="st0" d="M177.1,86.5c-0.4,0-0.9-0.1-1.2-0.5l-1.6-1.6c-0.3-0.3-0.5-0.8-0.5-1.2s0.1-0.9,0.5-1.2
					c0.4-0.4,0.8-0.5,1.3-0.5c0.5,0,0.9,0.1,1.3,0.5l1.5,1.7c0.3,0.3,0.4,0.7,0.4,1.1s-0.1,0.9-0.5,1.2
					C178.1,86.2,177.5,86.5,177.1,86.5z"/>
				<path class="st1" d="M176.1,82.9l1.3,1.6l0,0c0.1,0.1,0.1,0.4,0,0.5c-0.1,0.1-0.4,0.1-0.5,0l-1.6-1.6c-0.1-0.1-0.1-0.4,0-0.5
					C175.4,82.7,175.8,82.6,176.1,82.9L176.1,82.9L176.1,82.9z"/>
				<path class="st0" d="M180.8,90.3c-0.4,0-0.8-0.1-1.1-0.4l-1.7-1.3l0,0c-0.3-0.3-0.5-0.8-0.5-1.2s0.1-0.8,0.4-1.1
					c0.3-0.5,0.8-0.8,1.5-0.8c0.5,0,1.1,0.3,1.3,0.7l1.5,1.2c0.4,0.4,0.5,0.8,0.5,1.3c0,0.4-0.1,0.9-0.5,1.2
					C181.8,90,181.2,90.3,180.8,90.3z"/>
				<path class="st1" d="M179.5,87l1.6,1.3l0,0c0.1,0.1,0.1,0.4,0,0.5s-0.4,0.1-0.5,0l-1.7-1.3c-0.1-0.1-0.1-0.4,0-0.5
					C179,86.7,179.4,86.7,179.5,87L179.5,87L179.5,87z"/>
				<path class="st0" d="M184.2,93.5L182,92l-0.1-0.1c-0.1-0.1-0.3-0.4-0.4-0.5l-0.4-0.1l0.1-1.1c0.1-0.8,1.1-1.2,1.7-1.2
					c0.4,0,0.9,0.1,1.2,0.4l1.6,1.2l0,0c0.3,0.3,0.5,0.8,0.5,1.2s-0.1,0.9-0.5,1.2c-0.5,0.5-1.2,0.5-1.5,0.5
					C184.3,93.5,184.2,93.5,184.2,93.5z"/>
				<path class="st1" d="M183.5,90.3l1.6,1.2l0,0c0.1,0.1,0.1,0.4,0,0.5c-0.1,0.1-0.4,0.1-0.5,0.1l-1.7-1.2
					c-0.1-0.1-0.1-0.4-0.1-0.5C182.4,90.3,183.2,90,183.5,90.3L183.5,90.3L183.5,90.3z"/>
				<path class="st0" d="M188.8,96.1l-2.5-1.2l-0.1-0.1c-0.5-0.5-0.5-1.2-0.5-1.5v-0.9l0.9-0.3c0.3-0.1,0.5-0.3,1.1-0.3
					c0.3,0,0.7,0,0.9,0.4l1.7,0.9l0.1,0.1c0.5,0.5,0.5,1.2,0.5,1.5v0.5l-0.4,0.4c-0.5,0.5-1.2,0.5-1.5,0.5h-0.3V96.1z"/>
				<path class="st1" d="M187.7,93.2l1.7,0.9l0,0c0.1,0.1,0.1,0.4,0.1,0.5c-0.1,0.1-0.4,0.1-0.5,0.1l-2-0.9
					c-0.1-0.1-0.1-0.4-0.1-0.5C187.3,93.2,187.5,93,187.7,93.2L187.7,93.2L187.7,93.2z"/>
				<path class="st0" d="M194.1,98.4c-0.4,0-0.7-0.1-0.9-0.3l-1.6-0.7c-0.5-0.1-1.1-0.7-1.2-1.2c-0.1-0.7,0.1-1.2,0.5-1.6
					c0.4-0.3,0.8-0.4,1.2-0.4c0.3,0,0.5,0.1,0.8,0.3l1.7,0.7c0.5,0.1,1.1,0.7,1.2,1.2c0.1,0.5,0,1.1-0.4,1.3
					C195.3,98.1,194.6,98.4,194.1,98.4z"/>
				<path class="st1" d="M192.4,95.5l2,0.8l0,0c0.1,0,0.4,0.4,0.1,0.5c0,0.1-0.4,0.4-0.5,0.1l-2-0.8c-0.1,0-0.4-0.4-0.1-0.5
					C192,95.5,192.2,95.3,192.4,95.5L192.4,95.5L192.4,95.5z"/>
				<path class="st0" d="M199.3,99.6l-2.1-0.4c-0.8-0.1-1.6-0.8-1.6-1.7c0-0.5,0.1-1.7,1.9-1.7h0.1l2,0.4c0.8,0.1,1.6,0.8,1.6,1.7
					C201.1,98.9,200.5,99.6,199.3,99.6L199.3,99.6z"/>
				<path class="st1" d="M197.4,97.1l2,0.4l0,0c0.1,0,0.4,0.1,0.4,0.4s-0.1,0.4-0.4,0.4l-2.1-0.4c-0.1,0-0.4-0.1-0.4-0.4
					C196.9,97.1,197,97.1,197.4,97.1L197.4,97.1L197.4,97.1z"/>
				<path class="st0" d="M202.3,100.1c-0.8,0-1.6-0.7-1.6-1.7v-0.3l0.1-0.3c0.4-1.1,1.1-1.3,1.6-1.3l2.3,0.1c0.8,0,1.6,0.7,1.6,1.7
					c0,0.8-0.7,1.7-1.7,1.7C204.6,100.2,202.3,100.1,202.3,100.1z"/>
				<path class="st1" d="M202.4,98l2.1,0.1l0,0c0.1,0,0.4,0.1,0.4,0.4c0,0.1-0.1,0.4-0.4,0.4l-2.1-0.1c-0.1,0-0.4-0.1-0.4-0.4
					C202.2,98,202.3,98,202.4,98L202.4,98L202.4,98z"/>
				<path class="st0" d="M207.7,100.5c-0.8,0-1.7-0.7-1.7-1.7c0-1.7,1.2-1.9,1.7-1.9h2.1c0.8,0,1.7,0.7,1.7,1.7
					c0,1.1-0.7,1.7-1.7,1.7L207.7,100.5L207.7,100.5z"/>
				<path class="st1" d="M207.7,98.3h2.1l0,0c0.1,0,0.4,0.1,0.4,0.4s-0.1,0.4-0.4,0.4l-2.1,0.1c-0.1,0-0.4-0.1-0.4-0.4
					C207.4,98.4,207.4,98.3,207.7,98.3L207.7,98.3L207.7,98.3z"/>
				<path class="st0" d="M212.8,100c-1.1,0-1.7-0.7-1.7-1.7c0-0.9,0.8-1.6,1.6-1.7l2.1-0.4h0.1c0.8,0,1.7,0.7,1.7,1.7
					c0,1.2-0.8,1.7-1.6,1.7L212.8,100L212.8,100z"/>
				<path class="st1" d="M212.8,97.9l2.1-0.4l0,0c0.1,0,0.4,0.1,0.4,0.4s0,0.4-0.4,0.4l-2.1,0.4c-0.1,0-0.4,0-0.4-0.4
					C212.4,98,212.7,97.9,212.8,97.9L212.8,97.9L212.8,97.9z"/>
				<path class="st0" d="M218.1,98.5c-1.7,0-1.7-1.5-1.7-1.5c0-1.3,0.8-1.6,1.2-1.7l2.1-0.5h0.1c1.7,0,1.7,1.5,1.7,1.5
					c0,1.2-0.7,1.6-1.1,1.7l0,0l-2.1,0.5H218.1z"/>
				<path class="st1" d="M217.8,96.7l2-0.5l0,0c0.1,0,0.4,0,0.4,0.1c0,0.1,0,0.4-0.1,0.4l-2,0.5c-0.1,0-0.4,0-0.4-0.1
					C217.7,96.8,217.7,96.7,217.8,96.7L217.8,96.7L217.8,96.7z"/>
				<path class="st0" d="M223,96.8c-1.7,0-1.7-1.5-1.7-1.5c0-1.2,0.5-1.6,1.1-1.6l2.1-1.1h0.3c1.7,0,1.7,1.5,1.7,1.5
					c0,1.1-0.5,1.5-0.9,1.6l-2.3,1.1H223z"/>
				<path class="st1" d="M222.7,94.9l2-0.9l0,0c0.1,0,0.4,0,0.4,0.1s0,0.4-0.1,0.4l-2,0.9c-0.1,0-0.4,0-0.4-0.1
					C222.6,95.1,222.6,94.9,222.7,94.9L222.7,94.9L222.7,94.9z"/>
				<path class="st0" d="M227.6,94.3c-0.3,0-0.5-0.1-0.8-0.1h-0.4l-0.4-0.9c-0.3-0.5-0.1-1.3,0.4-1.7l0.1-0.1l1.7-1.2
					c0.3-0.3,0.7-0.3,0.9-0.3c0.7,0,1.2,0.4,1.5,0.9c0.3,0.4,0.3,1.1,0,1.6l-0.1,0.3l-2,1.3C228.3,94.3,228,94.3,227.6,94.3z"/>
				<path class="st1" d="M227.4,92.4l1.7-1.2l0,0c0.1-0.1,0.4,0,0.4,0.1c0.1,0.1,0,0.4,0,0.4l-1.7,1.2c-0.1,0.1-0.4,0-0.4-0.1
					C227.2,92.8,227.2,92.6,227.4,92.4L227.4,92.4L227.4,92.4z"/>
				<path class="st0" d="M231.9,91.4c-0.8,0-1.3-0.5-1.5-1.2c-0.3-0.7-0.1-1.1,0-1.3l0.4-0.7h0.4l1.2-1.1c0.3-0.3,0.7-0.4,1.1-0.4
					c0.5,0,1.1,0.3,1.3,0.8c0.3,0.4,0.3,1.1,0.1,1.5l-0.4,0.8h-0.4l-1.3,1.1C232.8,91.1,232.3,91.4,231.9,91.4z"/>
				<path class="st1" d="M231.7,89.5l1.6-1.3l0,0c0.1-0.1,0.4-0.1,0.4,0c0.1,0.1,0.1,0.4,0,0.4l-1.6,1.3c-0.1,0.1-0.4,0.1-0.4,0
					C231.7,89.6,231.5,89.5,231.7,89.5L231.7,89.5L231.7,89.5z"/>
				<path class="st0" d="M235.7,87.6c-0.1,0-0.4,0-0.5-0.1h-0.5l-0.4-0.9c-0.3-0.5-0.1-1.3,0.4-1.7l1.2-1.5c0.4-0.4,0.8-0.5,1.3-0.5
					c0.7,0,1.1,0.3,1.3,0.8c0.3,0.4,0.3,1.1,0.1,1.5l-0.4,0.8H238l-0.9,1.2C236.6,87.4,236.1,87.6,235.7,87.6z"/>
				<path class="st1" d="M235.6,85.8l1.3-1.6l0,0c0.1-0.1,0.4-0.1,0.4,0c0.1,0.1,0.1,0.4,0,0.4l-1.3,1.6c-0.1,0.1-0.4,0.1-0.4,0
					C235.5,86.2,235.5,85.9,235.6,85.8L235.6,85.8L235.6,85.8z"/>
				<path class="st0" d="M239.2,83.7c-0.4,0-0.7-0.1-0.9-0.3l-0.1-0.1l-0.1-0.1c-0.5-0.4-0.7-1.2-0.4-1.7l0.4-0.8h0.3l0.7-1.1
					c0.3-0.5,0.7-0.8,1.3-0.8c0.1,0,0.4,0,0.5,0.1h0.5l0.5,0.7c0.3,0.5,0.3,1.1,0,1.6v0.1l-1.2,1.6
					C240.2,83.3,239.8,83.7,239.2,83.7z"/>
				<path class="st1" d="M238.9,81.8l1.2-1.7l0,0c0-0.1,0.1-0.1,0.4,0c0.1,0,0.1,0.1,0,0.4l-1.2,1.7c0,0.1-0.1,0.1-0.4,0
					C238.8,82.1,238.8,81.8,238.9,81.8L238.9,81.8L238.9,81.8z"/>
				<path class="st0" d="M241.8,79.2c-0.9,0-1.5-0.7-1.6-1.2c-0.1-0.5,0-1.1,0.4-1.5l0.7-1.5c0.1-0.4,0.5-1.1,1.6-1.1
					c0.3,0,1.5,0.1,1.5,1.7V76l-1.1,2.1C243.4,78.6,243,79.2,241.8,79.2z"/>
				<path class="st1" d="M241.7,77.4l0.9-2l0,0c0-0.1,0.1-0.1,0.4-0.1c0.1,0,0.1,0.1,0.1,0.4l-0.9,2c0,0.1-0.1,0.1-0.4,0.1
					C241.4,77.8,241.4,77.6,241.7,77.4L241.7,77.4L241.7,77.4z"/>
				<path class="st0" d="M243.7,72.9l-1.2,0.5c-0.1-0.1-0.3-0.5-0.3-0.9v-0.1l0.5-2.1c0.1-0.4,0.4-1.2,1.7-1.2
					c0.3,0,1.5,0.1,1.5,1.7v0.1l-0.5,2.1c-0.1,0.4-0.4,1.2-1.7,1.2V72.9z"/>
				<path class="st1" d="M243.5,72.5l0.5-2l0,0c0-0.1,0.1-0.1,0.4-0.1c0.1,0,0.1,0.1,0.1,0.4l-0.5,2c0,0.1-0.1,0.1-0.4,0.1
					C243.8,72.9,243.5,72.7,243.5,72.5L243.5,72.5L243.5,72.5z"/>
				<path class="st0" d="M245.3,69.2c0,0-1.5,0-1.5-1.7v-0.1l0.4-2.3c0-0.4,0.4-1.2,1.7-1.2c0.3,0,1.5,0.1,1.5,1.7v0.1L247,68
					C246.9,68.4,246.6,69.2,245.3,69.2z"/>
				<path class="st1" d="M245.1,67.5l0.4-2.1l0,0c0-0.1,0.1-0.1,0.4-0.1c0.1,0,0.1,0.1,0.1,0.4l-0.4,2.1c0,0.1-0.1,0.1-0.4,0.1
					C245.1,67.9,245.1,67.6,245.1,67.5L245.1,67.5L245.1,67.5z"/>
				<path class="st0" d="M246.1,63.9c-0.8,0-1.5-0.7-1.5-1.5l0.1-2.3c0-0.7,0.7-1.3,1.5-1.3s1.5,0.7,1.5,1.5l-0.1,2.3
					C247.5,63.3,246.9,63.9,246.1,63.9z"/>
				<path class="st1" d="M245.9,62.5l0.1-2.1l0,0c0-0.1,0.1-0.1,0.1-0.1c0.1,0,0.1,0.1,0.1,0.1l-0.1,2.1c0,0.1-0.1,0.1-0.1,0.1
					S245.9,62.6,245.9,62.5L245.9,62.5L245.9,62.5z"/>
				<path class="st0" d="M246.1,58.7c-0.9,0-1.5-0.8-1.5-1.6l-0.1-2c0-0.9,0.7-1.6,1.5-1.6s1.5,0.7,1.5,1.5l0.1,2
					c0,0.3,0,0.4-0.1,0.7v0.9L246.1,58.7z"/>
				<path class="st1" d="M245.9,57.2l-0.1-2.1l0,0c0-0.1,0.1-0.1,0.1-0.1c0.1,0,0.1,0,0.1,0.1l0.1,2.1c0,0.1-0.1,0.1-0.1,0.1
					C246.1,57.6,245.9,57.3,245.9,57.2L245.9,57.2L245.9,57.2z"/>
				<path class="st0" d="M245.5,53.4c-0.8,0-1.5-0.7-1.6-1.5l-0.4-2.1v-0.1c0-0.4,0.1-0.7,0.3-0.9l0.4-0.8h0.8
					c0.4,0,0.7,0.1,0.9,0.3l0.7,0.3l0.5,2.9v0.1c0,0.4-0.1,0.7-0.3,0.9C246.6,53.2,246.1,53.4,245.5,53.4z"/>
				<path class="st1" d="M245.3,51.9l-0.4-2.1l0,0c0-0.1,0-0.1,0.1-0.4c0.1,0,0.1,0,0.4,0.1l0.4,2.1c0,0.1,0,0.1-0.1,0.4
					C245.5,52.3,245.3,52.1,245.3,51.9L245.3,51.9L245.3,51.9z"/>
				<path class="st0" d="M244.3,48.4c-0.7,0-1.3-0.4-1.5-1.3l-0.8-2v-0.3c0-0.4,0.1-0.7,0.3-0.9l0.1-0.1l0.5-0.5h0.7
					c0.5,0,0.8,0.3,0.9,0.4l0.4,0.3l0.1,0.4l0.9,2.3v0.3c0,0.4-0.1,0.7-0.3,0.9l-0.1,0.1l-0.1,0.1C245.1,48.3,244.6,48.4,244.3,48.4
					z"/>
				<path class="st1" d="M244.2,46.8l-0.8-2l0,0c0-0.1,0-0.1,0.1-0.4c0.1-0.1,0.1,0,0.4,0.1l0.8,2c0,0.1,0,0.1-0.1,0.4
					C244.3,47.2,244.2,47.1,244.2,46.8L244.2,46.8L244.2,46.8z"/>
				<path class="st0" d="M241.3,43.5l-0.5-0.8l-1.1-2.3v-0.3c0-0.4,0.1-0.7,0.3-0.9l0.4-0.8h0.8c0.4,0,0.7,0.1,0.9,0.3l0.4,0.3
					l1.2,2.7v0.3c0,0.4-0.1,0.7-0.3,0.9l-2.5-0.5c0,0.7,0.7,1.2,1.1,1.2H241.3z"/>
				<path class="st1" d="M242,42.2l-0.9-2l0,0c0-0.1,0-0.1,0.1-0.4c0.1,0,0.1,0,0.4,0.1l0.9,2c0,0.1,0,0.1-0.1,0.4
					C242.3,42.2,242.2,42.2,242,42.2L242,42.2L242,42.2z"/>
				<path class="st0" d="M239.7,39c-0.4,0-0.7-0.1-0.8-0.3l-0.3-0.1l-1.6-2.4v-2.1h2.4l1.9,2.7v1.3l-0.4,0.4
					C240.6,38.6,240.2,39,239.7,39z"/>
				<path class="st1" d="M239.4,37.5l-1.2-1.7l0,0c0-0.1,0-0.1,0-0.4c0.1,0,0.1,0,0.4,0l1.2,1.7c0,0.1,0,0.1,0,0.4
					C239.7,37.7,239.7,37.7,239.4,37.5L239.4,37.5L239.4,37.5z"/>
				<polygon class="st0" points="235.7,34.8 233.7,32.4 233.7,30.1 236.1,30.1 238.1,32.5 238.1,34.8 				"/>
				<path class="st1" d="M236.4,33.4l-1.3-1.6l0,0c0,0,0-0.1,0-0.4c0,0,0.1,0,0.4,0l1.3,1.6c0,0,0,0.1,0,0.4
					C236.5,33.4,236.4,33.4,236.4,33.4L236.4,33.4L236.4,33.4z"/>
				<path class="st0" d="M232.1,31l-2.7-2.3l0.3-1.1c0.1-0.3,0.3-0.4,0.5-0.7l0.3-0.3h0.7c0.4,0,0.8,0.3,1.1,0.5l1.5,1.2
					c0.5,0.5,0.7,1.2,0.4,2l-2.5-0.5c0,0.4,0.4,1.1,1.2,1.1H232.1z"/>
				<path class="st1" d="M232.7,29.7l-1.6-1.3l0,0c0,0-0.1-0.1,0-0.1c0,0,0.1-0.1,0.1,0l1.6,1.3c0,0,0.1,0.1,0,0.4
					C232.8,29.7,232.7,29.7,232.7,29.7L232.7,29.7L232.7,29.7z"/>
				<path class="st0" d="M228,28l-2.1-1.5l-0.7-0.7l0.3-0.9c0.1-0.3,0.3-0.4,0.5-0.7l0.3-0.3h0.7h1.3v0.7l1.3,0.9l0.7,0.7l-0.3,0.9
					c-0.1,0.5-0.7,0.8-1.2,0.8l0,0H228z"/>
				<path class="st1" d="M228.4,26.7l-1.7-1.2l0,0c0,0-0.1-0.1,0-0.1c0,0,0.1-0.1,0.1,0l1.7,1.2c0,0,0.1,0.1,0,0.1
					C228.8,26.7,228.6,26.7,228.4,26.7L228.4,26.7L228.4,26.7z"/>
				<path class="st0" d="M223.5,25.2l-0.3-0.3l-2-0.8l-0.8-0.8l0.3-0.9c0.1-0.3,0.3-0.4,0.5-0.7l0.3-0.3h0.7h1.3V22l1.5,0.5l0.8,0.8
					l-0.3,0.9l-0.4,0.8h-0.5c-0.1,0-0.3,0.1-0.4,0.1C224.2,25.2,223.5,25.2,223.5,25.2z"/>
				<path class="st1" d="M223.9,23.9l-2-0.8l0,0c0,0-0.1-0.1,0-0.1c0,0,0.1-0.1,0.1,0l2,0.8c0,0,0.1,0.1,0,0.1
					C224.1,23.9,224.1,24,223.9,23.9L223.9,23.9L223.9,23.9z"/>
				<path class="st0" d="M218.9,23.2l-2.5-0.7l-1.3-1.3l1.6-1.6l3,0.8l0.4,0.4c0.7,0.7,0.5,1.2,0.4,1.6
					C220.2,23,219.8,23.2,218.9,23.2C219,23.2,218.9,23.2,218.9,23.2z"/>
				<path class="st1" d="M219,21.9l-2-0.5l-0.1-0.1l0.1-0.1l2,0.5l0.1,0.1C219.3,21.9,219.3,21.9,219,21.9L219,21.9z"/>
				<path class="st0" d="M213.8,22.2l-2.1-0.4c-0.7-0.1-1.3-0.7-1.3-1.5v-0.5l1.1-1.1l3.2,0.7h0.9v1.3c0,0.4-0.1,0.8-0.5,1.1
					C214.8,22,214.4,22.2,213.8,22.2L213.8,22.2z"/>
				<path class="st1" d="M214,20.8l-2.1-0.4c0,0-0.1,0-0.1-0.1l0.1-0.1l2.1,0.4l0.1,0.1C214.2,20.6,214.2,20.8,214,20.8L214,20.8z"
					/>
				<path class="st0" d="M206.6,21.4c-0.8,0-1.5-0.7-1.5-1.5c0-0.8,0.7-1.5,1.5-1.5h2.1c0.9,0,1.3,0.4,1.5,0.8
					c0.4,0.8-0.3,1.5-0.5,1.7l-0.4,0.4H206.6z"/>
				<path class="st1" d="M208.7,20h-2.1c0,0-0.1,0-0.1-0.1c0,0,0-0.1,0.1-0.1h2.1C208.9,19.8,208.9,19.8,208.7,20
					C208.9,20,208.9,20,208.7,20L208.7,20z"/>
				<path class="st0" d="M201.4,21.6c-0.8,0-1.5-0.7-1.5-1.5s0.7-1.5,1.5-1.5l1.6-0.1l0,0h0.7h0.9l0.1,0.3h0.4v1.3v1.3h-1.5
					L201.4,21.6L201.4,21.6z"/>
				<path class="st1" d="M203.5,20.2l-2.1,0.1c0,0-0.1,0-0.1-0.1c0,0,0-0.1,0.1-0.1l2.1-0.1C203.6,19.8,203.6,20,203.5,20.2
					C203.6,20,203.6,20.2,203.5,20.2L203.5,20.2z"/>
				<path class="st0" d="M195,22.8v-1.3c0-0.7,0.5-1.3,1.2-1.5l1.5-0.4c0.3-0.3,0.5-0.3,0.8-0.3c0.1,0,0.1,0,0.3,0l1.1-0.3v1.2
					l0.7,1.5l-0.7,0.1V22l-3.2,0.8H195z"/>
				<path class="st1" d="M198.5,21l-2,0.5h-0.1c0,0,0-0.1,0.1-0.1l2.1-0.5C198.5,20.6,198.5,20.8,198.5,21
					C198.5,20.8,198.5,21,198.5,21L198.5,21z"/>
				<path class="st0" d="M189.9,24.4V22l3-1.2h0.3c0.8,0,1.5,0.7,1.5,1.5v0.9l-3,1.2H189.9z"/>
				<path class="st1" d="M193.3,22.3l-2,0.8h-0.1V23l2-0.8C193.3,22.2,193.3,22.2,193.3,22.3C193.6,22.3,193.3,22.3,193.3,22.3
					L193.3,22.3z"/>
				<path class="st0" d="M185.3,26.7v-2.3L188,23h0.4c0.8,0,1.5,0.7,1.5,1.5v0.8l-2.7,1.5C187.2,26.7,185.3,26.7,185.3,26.7z"/>
				<path class="st1" d="M188.5,24.4l-1.7,0.9h-0.1v-0.1l1.7-0.9C188.5,24.3,188.5,24.3,188.5,24.4
					C188.7,24.4,188.7,24.4,188.5,24.4L188.5,24.4z"/>
				<path class="st0" d="M180.8,29.7v-2.4l0.8-0.4c0.5-0.3,1.1-0.5,1.6-0.9l0.7,0.8l-0.7-0.8l0.7,0.8h0.1v-1.2v1.2h1.3v0.1H184v0.1
					l0.8,0.9l-0.8-0.9l0.8,0.9c-0.3,0.3-0.7,0.4-0.9,0.7c-0.3,0.1-0.5,0.4-0.8,0.5l-0.4,0.3h-1.9L180.8,29.7L180.8,29.7z M184,27.2
					L184,27.2L184,27.2z"/>
				<path class="st1" d="M184,27.2c-0.5,0.4-1.2,0.8-1.7,1.2h-0.1v-0.1C182.8,28,183.5,27.6,184,27.2C184,26.9,184,26.9,184,27.2
					C184.2,27.2,184.2,27.2,184,27.2L184,27.2z"/>
				<polygon class="st0" points="177.1,33.6 177.1,31.4 179.4,29.6 180,30.4 180.6,29.3 180.7,29.4 180.2,30.5 181.5,30.5 
					180.2,30.6 181.1,31.6 179.1,33.6 				"/>
				<path class="st1" d="M180.2,30.6l-1.6,1.6h-0.1v-0.1L180.2,30.6C179.9,30.5,179.9,30.5,180.2,30.6
					C180.2,30.5,180.2,30.5,180.2,30.6L180.2,30.6z"/>
				<path class="st0" d="M173.7,37.4v-2L175,34l0.3-0.9h1.1c0.8,0,1.5,0.7,1.5,1.5v2.1l-0.9-0.5l-1.1,1.3H173.7z"/>
				<path class="st1" d="M176.5,34.4l-1.3,1.7c0,0,0,0-0.1,0c0,0,0,0,0-0.1L176.5,34.4C176.2,34.2,176.5,34.2,176.5,34.4L176.5,34.4
					L176.5,34.4z"/>
				<polygon class="st0" points="170.9,41.8 170.9,40.1 171.2,39.5 172.2,37.9 173.1,38.6 173.3,38.6 173.3,37.4 173.3,38.6 
					174.6,38.6 173.3,38.7 173.3,38.7 174.5,39.4 173.1,41.8 				"/>
				<path class="st1" d="M173.3,38.7l-0.9,1.7c0,0,0,0-0.1,0c0,0,0,0,0-0.1L173.3,38.7C173.3,38.7,173.3,38.5,173.3,38.7
					C173.3,38.7,173.5,38.7,173.3,38.7L173.3,38.7z"/>
				<path class="st0" d="M169,44.8l0.5-1.3c0-0.1,0-0.1,0-0.3v-1.3h1.3c0.4,0,0.8,0.1,1.1,0.5l2.3,2.3H172l-0.4,1.2L169,44.8z"/>
				<path class="st1" d="M171,43.4l-0.8,2l0,0l0,0L171,43.4C170.8,43.4,170.8,43.1,171,43.4L171,43.4L171,43.4z"/>
				<polygon class="st0" points="167.3,49.7 167.8,47.7 169,48.1 169,46.8 169.2,48.1 170.5,48.5 170,50.5 				"/>
				<path class="st1" d="M169.2,48.1l-0.5,2l0,0l0,0L169.2,48.1C169,48.1,169,48.1,169.2,48.1L169.2,48.1L169.2,48.1z"/>
				<polygon class="st0" points="166.7,55.4 166.8,53.3 167.2,53.4 167.8,53.4 168.5,52.1 169.4,52.6 169.3,55.7 				"/>
				<path class="st1" d="M168.1,53.4l-0.1,2.1l0,0l0,0L168.1,53.4C167.8,53.3,167.8,53.3,168.1,53.4
					C168.1,53.3,168.1,53.4,168.1,53.4L168.1,53.4z"/>
				<path class="st0" d="M168,60.9h-1.6v-1.7c-0.3-0.5-0.1-0.9,0-1.1l0.4-0.8h0.9c0.8,0,1.5,0.7,1.5,1.5v3.2L168,60.9z"/>
				<path class="st1" d="M167.7,58.7v2.1l0,0l0,0V58.7C167.4,58.5,167.4,58.5,167.7,58.7C167.4,58.5,167.7,58.5,167.7,58.7
					L167.7,58.7z"/>
				<polygon class="st0" points="166.8,65.2 166.5,65.2 166.5,63.9 166.5,62.6 167.8,62.6 169.2,62.6 169.2,63.8 169.6,65.8 
					166.9,66.3 				"/>
				<path class="st1" d="M167.8,63.9l0.4,2.1l0,0l0,0L167.8,63.9C167.7,63.9,167.8,63.8,167.8,63.9
					C167.8,63.8,167.8,63.8,167.8,63.9L167.8,63.9z"/>
				<polygon class="st0" points="167.6,69.5 168.9,69.1 168.8,67.8 169.8,67.8 170.2,68.7 170.8,70.7 168.1,71.5 				"/>
				<path class="st1" d="M168.9,69.1l0.5,2l0,0l0,0L168.9,69.1C168.6,69.1,168.9,69.1,168.9,69.1L168.9,69.1L168.9,69.1z"/>
				
					<rect x="169.4" y="74" transform="matrix(0.9286 -0.3711 0.3711 0.9286 -15.6543 68.7306)" class="st0" width="2.7" height="2.1"/>
				<path class="st1" d="M170.4,74.1l0.8,2l0,0l0,0L170.4,74.1L170.4,74.1L170.4,74.1L170.4,74.1z"/>
				
					<rect x="172.1" y="78.6" transform="matrix(0.8222 -0.5693 0.5693 0.8222 -14.5015 112.8883)" class="st0" width="2.7" height="2.1"/>
				<polygon class="st1" points="172.8,78.8 173.9,80.5 173.9,80.5 173.9,80.5 				"/>
			</g>
		</g>
		<circle class="st0" cx="186.8" cy="177" r="14.6"/>
		<circle class="st0" cx="207" cy="59.3" r="19.2"/>
		<g>
			<g>
				<path class="st0" d="M13.4,60.5c0-2.4,1.7-3.7,3.7-3.7h18.8c2.4,0,3.7,1.3,3.7,3.4s-1.3,3.4-3.7,3.4H20.7v5.8h6.6
					c2.4,0,3.7,1.3,3.7,3.4s-1.3,3.4-3.7,3.4h-6.6v9c0,2.5-1.6,3.8-3.7,3.8s-3.6-1.2-3.6-3.7V60.5z"/>
				<path class="st0" d="M39.4,76.2c0,4.2,3,6.6,6.6,6.6c3.7,0,6.8-2.4,6.8-6.6V60.3c0-2.5,1.6-3.8,3.7-3.8s3.7,1.3,3.7,3.8v15.8
					c0,8.6-5.8,13.8-14.2,13.8c-8.2,0-14.2-5.3-14.2-13.8V60.3c0-2.5,1.6-3.7,3.7-3.7s3.7,0.9,3.7,3.7L39.4,76.2L39.4,76.2z"/>
				<path class="st0" d="M83,60.5c0-2.4,1.7-3.7,3.7-3.7h8.7c9.7,0,15.2,7.8,15.2,16.2c0,10.7-7.2,16.6-15.2,16.6h-9
					c-2,0-3.7-1.3-3.7-3.7V60.5H83z M90.4,82.5h3.8c5.8,0,8.6-3.8,8.6-9.7c0-5.4-2.8-9.1-8.2-9.1h-4.2
					C90.4,63.7,90.4,82.5,90.4,82.5z"/>
				<path class="st0" d="M117.2,62.9c1.3-3.7,2.5-6.8,6.2-6.8c3.8,0,4.9,3,6.2,6.8l7.2,19.2c0.9,2.5,1.2,3.4,1.2,4.6
					c0,1.7-1.6,3-3.4,3c-2.4,0-3-1.6-3.8-3.7l-0.9-2.9h-12.2l-0.9,2.9c-0.8,2.1-1.6,3.7-3.8,3.7c-2.1,0-3.4-1.2-3.4-3
					c0-1.2,0.1-2,1.2-4.6L117.2,62.9z M123.7,64.2L123.7,64.2l-4.1,11.9h7.8L123.7,64.2z"/>
			</g>
			<g>
				<path class="st0" d="M61.8,60.3c0-2.4,1.6-3.4,3.4-3.4c0.8,0,2.4,0.8,2.9,1.6L82.7,78l0,0V60.3c0-2.4,1.6-3.4,3.4-3.4
					c2,0,3.4,1.3,3.4,3.4v25.5c0,2.4-1.6,3.4-3.4,3.4c-0.8,0-2.4-0.1-2.9-0.9L68.7,69.2l0,0v17.1c0,2.4-1.6,3.4-3.4,3.4
					c-1.9,0-3.4-1.3-3.4-3.4C61.8,86.3,61.8,60.3,61.8,60.3z"/>
			</g>
		</g>
		<g>
			<path class="st0" d="M61.4,95.7c0.8-3.8,3-4.6,4.9-4.6c3.7,0,4.5,2.1,6.4,8l3.7,11.3l0,0L80.1,99c2-5.8,2.8-8,6.4-8
				c2,0,4.2,0.8,4.9,4.6l2.9,16.7c0.5,3.3,1.2,7.2,1.2,8.2c0,1.6-1.3,3.4-3.4,3.4c-3.3,0-3.8-2.4-4.2-4.9l-2.1-14.5l0,0l-5,15.9
				c-0.9,2.5-1.9,3.4-4.2,3.4c-2.4,0-3.3-0.9-4.1-3.3l-5-15.9l0,0l-2.1,14.3c-0.4,2.5-0.9,4.9-4.2,4.9c-2.1,0-3.4-2-3.4-3.4
				c0-1.2,0.5-4.9,1.2-8.2L61.4,95.7z"/>
			<path class="st0" d="M96.7,97.2c1.3-3.7,2.5-6.8,6.2-6.8c3.8,0,4.9,3,6.2,6.8l7.2,19.2c0.9,2.5,1.2,3.4,1.2,4.6
				c0,1.7-1.6,3-3.4,3c-2.4,0-3-1.6-3.8-3.7l-0.9-2.9H97.1l-0.9,2.9c-0.8,2.1-1.6,3.7-3.8,3.7c-2.1,0-3.4-1.2-3.4-3
				c0-1.2,0.1-2,1.2-4.6L96.7,97.2z M103,98.8L103,98.8l-4.1,11.9h7.8L103,98.8z"/>
			<path class="st0" d="M119.5,98h-4.1c-2.5,0-3.8-1.3-3.8-3.4c0-2.1,1.3-3.4,3.8-3.4h19.5c2.5,0,3.8,1.3,3.8,3.4
				c0,2.1-1.3,3.4-3.8,3.4h-8v22c0,2.5-1.6,3.8-3.7,3.8c-2.1,0-3.7-1.3-3.7-3.8C119.5,120,119.5,98,119.5,98z"/>
			<path class="st0" d="M138.5,120.3c0,2.5-1.6,3.8-3.7,3.8c-2.1,0-3.7-1.3-3.7-3.8V94.9c0-2.5,1.6-3.7,3.7-3.7
				c2.1,0,3.8,0.9,3.8,3.7v25.3H138.5z"/>
			<path class="st0" d="M155.8,90.4c4.5,0,9.9,1.3,9.9,5.3c0,1.7-1.3,3.4-3,3.4s-3.4-1.6-6.4-1.6c-6.1,0-8.4,4.9-8.4,9.9
				c0,5.3,2.8,9.5,7.8,9.5c4.6,0,5.4-1.6,7.2-1.6c2.9,0,3.3,2.5,3.3,3.4c0,4.1-6.2,5.4-10.3,5.4c-10.3,0-15.9-7.8-15.9-17.1
				C139.5,97.6,145.8,90.4,155.8,90.4z"/>
			<path class="st0" d="M163.2,115.4c1.7,0,4.2,2,8,2c2.9,0,3.8-1.6,3.8-3c0-2.5-2.9-2.9-7-4.2c-3.8-1.2-7.8-2.9-7.8-8.7
				c0-7,5.4-10.5,11.7-10.5c6.1,0,9.3,2.1,9.3,4.9c0,2-1.3,3.4-3.3,3.4c-2.4,0-3-1.2-6.2-1.2c-2,0-3.3,0.9-3.3,2.8
				c0,2,1.7,2.1,7,3.8c4.1,1.3,8,3.3,8,9.5c0,7.6-5.4,10.9-12.5,10.9c-4.2,0-10.9-1.7-10.9-5.4C159.9,117.3,161.1,115.4,163.2,115.4
				z"/>
		</g>
	</g>
</g>
<g id="Layer_2_1_">
	<g id="Layer_1_2_">
		<g>
			<g>
				<path class="st1" d="M187.5,174.7l1.7-1.3l0,0c0.4-0.4,0.9-0.1,1.2,0.1c0.4,0.4,0.1,0.9-0.1,1.2l-2,1.3
					c-0.4,0.4-0.9,0.1-1.2-0.1C187.1,175.7,187.1,175.1,187.5,174.7L187.5,174.7L187.5,174.7z"/>
				<path class="st1" d="M192.2,171.2l1.7-1.6l0,0c0.4-0.4,0.9-0.1,1.2,0c0.4,0.4,0.1,0.9,0,1.2l-1.7,1.6c-0.4,0.4-0.9,0.1-1.2,0
					C192,172.2,191.8,171.6,192.2,171.2L192.2,171.2L192.2,171.2z"/>
				<path class="st1" d="M196.2,167.3l1.6-1.6l0,0c0.4-0.4,0.9-0.4,1.2,0c0.4,0.4,0.4,0.9,0,1.2l-1.6,1.7c-0.4,0.4-0.9,0.4-1.2,0
					C196.1,168.3,196,167.7,196.2,167.3L196.2,167.3L196.2,167.3z"/>
				<path class="st1" d="M200.3,163.2l1.6-1.7l0,0c0.4-0.4,0.8-0.4,1.2,0c0.4,0.4,0.4,0.8,0,1.2l-1.6,1.7c-0.4,0.4-0.8,0.4-1.2,0
					C199.9,164,199.9,163.6,200.3,163.2L200.3,163.2L200.3,163.2z"/>
				<path class="st1" d="M204,158.7l1.3-1.7l0,0c0.1-0.4,0.8-0.4,1.2-0.1c0.4,0.1,0.4,0.8,0.1,1.2l-1.3,2c-0.1,0.4-0.8,0.4-1.2,0.1
					C203.6,159.8,203.6,159.1,204,158.7L204,158.7L204,158.7z"/>
				<path class="st1" d="M207.4,154.3l1.2-2l0,0c0.1-0.4,0.8-0.5,1.2-0.1c0.4,0.1,0.5,0.8,0.1,1.2l-1.3,2c-0.1,0.4-0.8,0.5-1.2,0.1
					C207.2,155,207.2,154.6,207.4,154.3L207.4,154.3L207.4,154.3z"/>
				<path class="st1" d="M210.5,149.4l1.2-2l0,0c0.1-0.4,0.8-0.5,1.2-0.4c0.4,0.1,0.5,0.8,0.4,1.2l-1.2,2c-0.1,0.4-0.8,0.5-1.2,0.4
					C210.5,150.4,210.1,149.8,210.5,149.4L210.5,149.4L210.5,149.4z"/>
				<path class="st1" d="M213.1,144.4l0.9-2.1l0,0c0.1-0.4,0.8-0.5,1.2-0.4c0.4,0.1,0.5,0.8,0.4,1.2l-0.9,2.1
					c-0.1,0.4-0.8,0.5-1.2,0.4C213.1,145.2,212.8,144.8,213.1,144.4L213.1,144.4L213.1,144.4z"/>
				<path class="st1" d="M215.3,139.1l0.8-2.1l0,0c0.1-0.4,0.5-0.5,0.9-0.4c0.4,0.1,0.5,0.5,0.4,0.9l-0.8,2.1
					c-0.1,0.4-0.5,0.5-0.9,0.4C215.3,139.9,215.3,139.5,215.3,139.1L215.3,139.1L215.3,139.1z"/>
				<path class="st1" d="M217.4,133.6l0.8-2.1l0,0c0.1-0.4,0.5-0.5,0.9-0.5c0.4,0,0.5,0.5,0.5,0.9l-0.8,2.1
					c-0.1,0.4-0.5,0.5-0.9,0.5C217.7,134.6,217.3,134,217.4,133.6L217.4,133.6L217.4,133.6z"/>
				<path class="st1" d="M219,128.2l0.5-2.1l0,0c0.1-0.4,0.5-0.8,0.9-0.5c0.4,0.1,0.8,0.5,0.5,0.9l-0.5,2.4
					c-0.1,0.4-0.5,0.8-0.9,0.5C219.3,129,218.9,128.6,219,128.2L219,128.2L219,128.2z"/>
				<path class="st1" d="M220.2,122.5l0.4-2.4l0,0c0-0.4,0.4-0.8,0.9-0.5c0.4,0,0.8,0.4,0.5,0.9l-0.4,2.4c0,0.4-0.4,0.8-0.9,0.5
					C220.5,123.6,220.2,122.9,220.2,122.5L220.2,122.5L220.2,122.5z"/>
				<path class="st1" d="M221.1,116.9l0.1-2.4l0,0c0-0.4,0.4-0.8,0.8-0.8c0.4,0,0.8,0.4,0.8,0.8l-0.1,2.4c0,0.4-0.4,0.8-0.8,0.8
					C221.4,117.7,221,117.3,221.1,116.9L221.1,116.9L221.1,116.9z"/>
				<path class="st1" d="M221.5,111.2v-2.4l0,0c0-0.4,0.4-0.8,0.8-0.8c0.4,0,0.8,0.4,0.8,0.8v2.4c0,0.4-0.4,0.8-0.8,0.8
					S221.5,111.6,221.5,111.2L221.5,111.2L221.5,111.2z"/>
				<path class="st1" d="M221.5,105.4V103l0,0c0-0.4,0.4-0.8,0.8-0.8c0.4,0,0.8,0.4,0.8,0.8v2.4c0,0.4-0.4,0.8-0.8,0.8
					S221.5,105.8,221.5,105.4L221.5,105.4L221.5,105.4z"/>
				<path class="st1" d="M221.4,99.8l-0.1-2.4l0,0c0-0.4,0.1-0.8,0.5-0.8s0.8,0.1,0.8,0.5l0.1,2.4c0,0.4-0.1,0.8-0.5,0.8
					S221.4,100.1,221.4,99.8L221.4,99.8L221.4,99.8z"/>
				<path class="st1" d="M220.6,94.1l-0.4-2.4l0,0c0-0.4,0.1-0.8,0.5-0.8s0.8,0.1,0.8,0.5l0.4,2.4c0,0.4-0.1,0.8-0.5,0.8
					S220.6,94.5,220.6,94.1L220.6,94.1L220.6,94.1z"/>
				<path class="st1" d="M219.4,88.4l-0.5-2.1l0,0c0-0.4,0.1-0.8,0.5-0.9c0.4,0,0.8,0.1,0.9,0.5l0.5,2.4c0.1,0.4-0.1,0.8-0.5,0.9
					C220.1,89.1,219.7,88.8,219.4,88.4L219.4,88.4L219.4,88.4z"/>
				<path class="st1" d="M218.1,82.9l-0.8-2.1l0,0c-0.1-0.4,0-0.8,0.4-0.9c0.4-0.1,0.8,0,0.9,0.4l0.8,2.1c0.1,0.4,0,0.8-0.4,0.9
					C218.5,83.4,218.1,83.3,218.1,82.9L218.1,82.9L218.1,82.9z"/>
				<path class="st1" d="M216.1,77.4l-0.8-2.1l0,0c-0.1-0.4,0-0.8,0.4-0.9s0.8,0,0.9,0.4l0.8,2.1c0.1,0.4,0,0.8-0.4,0.9
					C216.6,78,216.4,77.8,216.1,77.4L216.1,77.4L216.1,77.4z"/>
				<path class="st1" d="M213.8,72.1l-0.9-2.1l0,0c-0.1-0.4,0-0.8,0.4-0.9s0.8,0,0.9,0.4l0.9,2.1c0.1,0.4,0,0.8-0.4,0.9
					S214,72.5,213.8,72.1L213.8,72.1L213.8,72.1z"/>
				<path class="st1" d="M211.3,67.1l-1.2-2l0,0c-0.1-0.4,0-0.8,0.1-0.9c0.4-0.1,0.8,0,0.9,0.1l1.2,2c0.1,0.4,0,0.8-0.1,0.9
					C212,67.5,211.5,67.5,211.3,67.1L211.3,67.1L211.3,67.1z"/>
				<path class="st1" d="M208.4,62.2l-1.3-2l0,0c-0.1-0.4-0.1-0.8,0.1-0.9c0.4-0.1,0.8-0.1,0.9,0.1l1.3,2c0.1,0.4,0.1,0.8-0.1,0.9
					C208.9,62.6,208.5,62.5,208.4,62.2L208.4,62.2L208.4,62.2z"/>
				<path class="st1" d="M205.1,57.3l-1.3-1.7l0,0c-0.1-0.4-0.1-0.8,0.1-0.9c0.4-0.1,0.8-0.1,0.9,0.1l1.3,1.7
					c0.1,0.4,0.1,0.8-0.1,0.9C205.6,57.7,205.2,57.7,205.1,57.3L205.1,57.3L205.1,57.3z"/>
				<path class="st1" d="M201.5,52.9l-1.6-1.7l0,0c-0.1-0.1-0.1-0.8,0-0.9c0.1-0.1,0.8-0.1,0.9,0l1.6,1.7c0.1,0.1,0.1,0.8,0,0.9
					C202.2,53.3,201.8,53.3,201.5,52.9L201.5,52.9L201.5,52.9z"/>
				<path class="st1" d="M197.7,48.5l-1.6-1.6l0,0c-0.1-0.1-0.1-0.5,0-0.9c0.1-0.1,0.5-0.1,0.9,0l1.7,1.6c0.1,0.1,0.1,0.5,0,0.9
					C198.6,48.9,197.8,48.9,197.7,48.5L197.7,48.5L197.7,48.5z"/>
				<path class="st1" d="M193.3,44.7l-1.7-1.6l0,0c-0.1-0.1-0.4-0.5,0-0.9c0.1-0.1,0.5-0.4,0.9,0l1.7,1.6c0.1,0.1,0.4,0.5,0,0.9
					C194.1,45,193.7,45,193.3,44.7L193.3,44.7L193.3,44.7z"/>
				<path class="st1" d="M189.1,41l-1.7-1.3l0,0c-0.4-0.1-0.5-0.5-0.4-0.8c0.1-0.3,0.5-0.4,0.9-0.1l2,1.3c0.1,0.1,0.4,0.5,0.1,0.9
					C189.7,41.4,189.3,41.2,189.1,41L189.1,41L189.1,41z"/>
				<path class="st1" d="M184.4,37.7l-2-1.2l0,0c-0.1-0.1-0.4-0.5-0.1-0.8c0.3-0.3,0.5-0.4,0.8-0.1l2,1.2c0.1,0.1,0.4,0.5,0.1,0.8
					C184.9,37.9,184.5,37.9,184.4,37.7L184.4,37.7L184.4,37.7z"/>
				<path class="st1" d="M179.4,34.8l-2-1.2l0,0c-0.1-0.1-0.4-0.5-0.1-0.8c0.1-0.4,0.5-0.4,0.8-0.1l2,1.2c0.4,0.1,0.4,0.5,0.1,0.8
					C179.9,34.8,179.8,35,179.4,34.8L179.4,34.8L179.4,34.8z"/>
				<path class="st1" d="M174.3,32.1l-2-0.9l0,0c-0.4-0.1-0.4-0.5-0.1-0.8c0.1-0.4,0.5-0.4,0.8-0.1l2.1,0.9c0.1,0,0.1,0.4,0.1,0.5
					C175,32.1,174.7,32.2,174.3,32.1L174.3,32.1L174.3,32.1z"/>
				<path class="st1" d="M169,29.7l-2.1-0.8l0,0c-0.4-0.1-0.4-0.4-0.4-0.8c0-0.4,0.4-0.4,0.8-0.4l2.1,0.8c0.4,0.1,0.4,0.4,0.4,0.8
					C169.8,29.7,169.4,30,169,29.7L169,29.7L169,29.7z"/>
				<path class="st1" d="M163.7,27.7l-2.1-0.5l0,0c-0.4,0-0.4-0.4-0.4-0.8c0-0.4,0.4-0.4,0.8-0.4l2.1,0.5c0.4,0,0.4,0.4,0.4,0.8
					C164.4,27.7,164,27.7,163.7,27.7L163.7,27.7L163.7,27.7z"/>
				<path class="st1" d="M158.2,26.3l-2.4-0.5l0,0c-0.4,0-0.5-0.4-0.4-0.8c0-0.4,0.4-0.5,0.8-0.4l2.4,0.5c0.4,0,0.5,0.4,0.4,0.8
					C158.7,26,158.6,26.3,158.2,26.3L158.2,26.3L158.2,26.3z"/>
				<path class="st1" d="M152.5,25.1l-2.4-0.4l0,0c-0.4,0-0.5-0.4-0.4-0.5c0-0.4,0.4-0.5,0.5-0.4l2.4,0.4c0.4,0,0.5,0.4,0.4,0.5
					C153.1,24.8,152.9,25.1,152.5,25.1L152.5,25.1L152.5,25.1z"/>
				<path class="st1" d="M146.9,24l-2.4-0.1l0,0c-0.4,0-0.5-0.4-0.5-0.5c0-0.4,0.4-0.5,0.5-0.5l2.4,0.1c0.4,0,0.5,0.4,0.5,0.5
					C147.4,23.9,147.3,24.3,146.9,24L146.9,24L146.9,24z"/>
				<path class="st1" d="M141.2,23.7h-2.4l0,0c-0.4,0-0.5-0.1-0.5-0.5c0-0.4,0.1-0.5,0.5-0.5h2.4c0.4,0,0.5,0.1,0.5,0.5
					C141.7,23.5,141.5,23.7,141.2,23.7L141.2,23.7L141.2,23.7z"/>
				<path class="st1" d="M135.4,23.7H133l0,0c-0.4,0-0.5-0.1-0.5-0.5c0-0.4,0.1-0.5,0.5-0.5l2.4-0.1c0.4,0,0.5,0.1,0.5,0.5
					S135.8,23.7,135.4,23.7L135.4,23.7L135.4,23.7z"/>
				<path class="st1" d="M129.7,24l-2.3,0.3l0,0c-0.1,0-0.5-0.1-0.5-0.4c0-0.1,0.1-0.5,0.4-0.5l2.4-0.1c0.1,0,0.5,0.1,0.5,0.4
					C130.1,23.7,129.9,24,129.7,24L129.7,24L129.7,24z"/>
				<path class="st1" d="M123.8,24.8l-2.1,0.4l0,0c-0.1,0-0.5-0.1-0.5-0.4s0.1-0.5,0.4-0.5l2.4-0.4c0.1,0,0.5,0.1,0.5,0.4
					C124.5,24.4,124.2,24.8,123.8,24.8L123.8,24.8L123.8,24.8z"/>
				<path class="st1" d="M118.3,26l-2.1,0.5l0,0c-0.1,0-0.5,0-0.5-0.4s0-0.5,0.4-0.5l2.4-0.5c0.1,0,0.5,0,0.5,0.4
					C118.8,25.6,118.7,25.9,118.3,26L118.3,26L118.3,26z"/>
				<path class="st1" d="M112.8,27.6l-2.1,0.8l0,0c-0.1,0-0.5,0-0.5-0.4c0-0.1,0-0.5,0.4-0.5l2.1-0.8c0.1,0,0.5,0,0.5,0.4
					C113.2,27.2,113,27.3,112.8,27.6L112.8,27.6L112.8,27.6z"/>
				<path class="st1" d="M107.4,29.3l-2.1,0.9l0,0c-0.1,0.1-0.5,0-0.5-0.1c-0.1-0.1,0-0.5,0.1-0.5l2.1-0.9c0.1-0.1,0.5,0,0.5,0.1
					C107.8,28.9,107.5,29.3,107.4,29.3L107.4,29.3L107.4,29.3z"/>
				<path class="st1" d="M102.1,31.7l-2.1,0.9l0,0c-0.1,0.1-0.5,0-0.5-0.1c-0.1-0.1,0-0.5,0.1-0.5l2.1-0.9c0.1-0.1,0.5,0,0.5,0.1
					C102.5,31.3,102.2,31.4,102.1,31.7L102.1,31.7L102.1,31.7z"/>
				<path class="st1" d="M97.1,34.4l-2,1.2l0,0c-0.1,0.1-0.5,0-0.5-0.1s0-0.5,0.1-0.5l2-1.2c0.1-0.1,0.5,0,0.5,0.1
					C97.2,33.8,97.2,34.2,97.1,34.4L97.1,34.4L97.1,34.4z"/>
				<path class="st1" d="M92,37.3l-2,1.3l0,0c-0.1,0.1-0.5,0-0.5-0.1c-0.1-0.1,0-0.5,0.1-0.5l2-1.3c0.1-0.1,0.5,0,0.5,0.1
					C92.4,36.9,92.1,37.1,92,37.3L92,37.3L92,37.3z"/>
				<path class="st1" d="M87.2,40.6l-1.7,1.3l0,0c-0.1,0.1-0.4,0.1-0.5,0c-0.1-0.1-0.1-0.4,0-0.5l1.7-1.3c0.1-0.1,0.4-0.1,0.5,0
					C87.4,40.2,87.5,40.5,87.2,40.6L87.2,40.6L87.2,40.6z"/>
				<path class="st1" d="M82.9,44.3L81,45.9l0,0c-0.1,0.1-0.4,0.1-0.5,0s-0.1-0.4,0-0.5l1.7-1.6c0.1-0.1,0.4-0.1,0.5,0
					C83,43.8,83,44.2,82.9,44.3L82.9,44.3L82.9,44.3z"/>
				<path class="st1" d="M78.5,48.1L77,49.7l0,0c-0.1,0.1-0.4,0.1-0.5,0c-0.1-0.1-0.1-0.4,0-0.5l1.6-1.7c0.1-0.1,0.4-0.1,0.5,0
					C78.8,47.6,78.8,48,78.5,48.1L78.5,48.1L78.5,48.1z"/>
				<path class="st1" d="M74.6,52.3l-1.6,1.9l0,0c-0.1,0.1-0.4,0.1-0.5,0c-0.1-0.1-0.1-0.4,0-0.5l1.6-1.7c0.1-0.1,0.4-0.1,0.5,0
					S74.8,52.1,74.6,52.3L74.6,52.3L74.6,52.3z"/>
				<path class="st1" d="M70.9,56.8l-1.3,2l0,0c-0.1,0.1-0.4,0.1-0.5,0s-0.1-0.4,0-0.5l1.3-2c0.1-0.1,0.4-0.1,0.5,0
					C71.2,56.4,71.2,56.6,70.9,56.8L70.9,56.8L70.9,56.8z"/>
				<path class="st1" d="M67.6,61.4l-1.2,2l0,0c-0.1,0.1-0.4,0.1-0.5,0.1c-0.1-0.1-0.1-0.4-0.1-0.5l1.2-2c0.1-0.1,0.4-0.1,0.5-0.1
					C67.6,60.9,67.9,61.3,67.6,61.4L67.6,61.4L67.6,61.4z"/>
				<path class="st1" d="M64.7,66.4l-1.2,2l0,0c-0.1,0.1-0.4,0.1-0.5,0.1s-0.1-0.4-0.1-0.5l1.2-2.1c0.1-0.1,0.4-0.1,0.5-0.1
					C64.7,65.8,64.7,66.3,64.7,66.4L64.7,66.4L64.7,66.4z"/>
				<path class="st1" d="M62.1,71.6L61,73.7l0,0c0,0.1-0.4,0.1-0.5,0.1c-0.1,0-0.1-0.4-0.1-0.5l0.9-2.1c0-0.1,0.4-0.1,0.5-0.1
					S62.2,71.3,62.1,71.6L62.1,71.6L62.1,71.6z"/>
				<path class="st1" d="M59.7,76.8l-0.8,2.1l0,0c0,0.1-0.1,0.1-0.4,0.1c-0.3,0-0.1-0.1-0.1-0.4l0.8-2.1c0-0.1,0.1-0.1,0.4-0.1
					C59.8,76.4,59.8,76.6,59.7,76.8L59.7,76.8L59.7,76.8z"/>
				<path class="st1" d="M57.9,82.2l-0.5,2.1c0,0.1-0.1,0.4-0.4,0.1c-0.1,0-0.4-0.1-0.1-0.4l0.5-2.1c0-0.1,0.1-0.4,0.4-0.1
					C57.7,81.8,57.9,82.1,57.9,82.2L57.9,82.2L57.9,82.2z"/>
				<path class="st1" d="M56.4,87.6L55.8,90c0,0.1-0.1,0.4-0.4,0.1c-0.1,0-0.4-0.1-0.1-0.4l0.5-2.4c0-0.1,0.1-0.4,0.4-0.1
					C56.2,87.4,56.4,87.5,56.4,87.6L56.4,87.6z"/>
				<path class="st1" d="M55.2,93.3l-0.4,2.4c0,0.1-0.1,0.4-0.4,0.1c-0.1-0.1-0.4-0.1-0.1-0.4l0.4-2.4c0-0.1,0.1-0.4,0.4-0.1
					C55.3,93.2,55.2,93.2,55.2,93.3L55.2,93.3z"/>
				<path class="st1" d="M54.4,99.2l-0.1,2.4c0,0.1-0.1,0.4-0.4,0.4c-0.3,0-0.4-0.1-0.4-0.4l0.1-2.4c0-0.1,0.1-0.4,0.4-0.4
					C54.2,98.8,54.4,99,54.4,99.2L54.4,99.2z"/>
				<path class="st1" d="M54,104.9v2.4c0,0.1-0.1,0.4-0.4,0.4c-0.3,0-0.4-0.1-0.4-0.4v-2.4c0-0.1,0.1-0.4,0.4-0.4
					C53.8,104.5,54,104.6,54,104.9L54,104.9z"/>
				<path class="st1" d="M54,110.7l0.1,2.4c0,0.1-0.1,0.4-0.1,0.4c-0.1,0-0.4-0.1-0.4-0.1l-0.1-2.5c0-0.1,0.1-0.4,0.4-0.4
					C53.8,110.3,54,110.4,54,110.7L54,110.7z"/>
				<path class="st1" d="M54.4,116.3l0.1,2.4c0,0.1,0,0.4-0.1,0.4c-0.1,0-0.4,0-0.4-0.1l-0.1-2.4c0-0.1,0-0.4,0.1-0.4
					C54.1,116.2,54.2,116.3,54.4,116.3L54.4,116.3z"/>
				<path class="st1" d="M55.2,122.1l0.4,2.4c0,0.1,0,0.4-0.1,0.4c-0.1,0-0.4,0-0.4-0.1l-0.4-2.5c0-0.1,0-0.4,0.1-0.4
					C54.9,121.9,55,122,55.2,122.1L55.2,122.1z"/>
				<path class="st1" d="M56.4,127.8l0.5,2.1c0,0.1,0,0.4-0.1,0.4c-0.1,0-0.4,0-0.4-0.1l-0.5-2.4c0-0.1,0-0.4,0.1-0.4
					C56.2,127.6,56.2,127.6,56.4,127.8L56.4,127.8z"/>
				<path class="st1" d="M57.9,133.3l0.8,2.1c0,0.1,0,0.1-0.1,0.4c-0.1,0-0.4,0-0.4-0.1l-0.8-2.1c0-0.1,0-0.4,0.1-0.4
					C57.7,133.1,57.7,133.3,57.9,133.3L57.9,133.3z"/>
				<path class="st1" d="M59.8,138.7l0.9,2.1c0,0.1,0,0.1-0.1,0.4c-0.1,0.1-0.1,0-0.4-0.1l-0.9-2.1c0-0.1,0-0.1,0.1-0.4
					C59.7,138.6,59.7,138.6,59.8,138.7L59.8,138.7z"/>
				<path class="st1" d="M62.2,144l0.9,2.1c0,0.1,0,0.1-0.1,0.4c-0.1,0-0.1,0-0.4-0.1l-0.9-2.1c0-0.1,0-0.1,0.1-0.4
					C62.1,143.7,62.1,144,62.2,144L62.2,144z"/>
				<path class="st1" d="M64.7,149.2l1.2,2c0,0.1,0,0.1,0,0.4c0,0.1-0.1,0-0.4,0l-1.2-2c0-0.1,0-0.1,0-0.4S64.7,149,64.7,149.2
					L64.7,149.2z"/>
				<path class="st1" d="M67.9,154.1l1.3,2c0,0.1,0,0.1,0,0.4c-0.1,0-0.1,0-0.4,0l-1.3-2c0-0.1,0-0.1,0-0.4
					C67.5,153.9,67.6,153.9,67.9,154.1L67.9,154.1z"/>
				<path class="st1" d="M71.2,158.7l1.3,1.7c0,0,0,0.1,0,0.4c0,0-0.1,0-0.4,0l-1.3-1.7c0,0,0-0.1,0-0.4
					C70.8,158.6,71.2,158.7,71.2,158.7L71.2,158.7z"/>
				<path class="st1" d="M74.8,163.2l1.6,1.7c0,0,0,0.1,0,0.4c0,0.1-0.1,0-0.4,0l-1.6-2c0,0,0-0.1,0-0.4
					C74.5,162.8,74.6,163.2,74.8,163.2L74.8,163.2z"/>
				<path class="st1" d="M78.8,167.5l1.7,1.6v0.1h-0.1l-1.7-1.6v-0.1C78.5,167.3,78.8,167.3,78.8,167.5L78.8,167.5z"/>
				<path class="st1" d="M83,171.4l1.7,1.6v0.1h-0.1l-1.7-1.6v-0.1C82.9,171.4,82.9,171.2,83,171.4L83,171.4z"/>
				<path class="st1" d="M87.5,175.1l2,1.3c0,0,0.1,0.1,0,0.1c0,0-0.1,0.1-0.1,0l-2-1.3c0,0-0.1-0.1,0-0.1
					C87.2,174.9,87.5,174.9,87.5,175.1L87.5,175.1z"/>
				<path class="st1" d="M92.1,178.5l2,1.2c0,0,0.1,0.1,0,0.1s-0.1,0.1-0.1,0l-2-1.2c0,0-0.1-0.1,0-0.1
					C92,178.2,92.1,178.2,92.1,178.5L92.1,178.5z"/>
				<path class="st1" d="M97.2,181.4l2,1.2c0,0,0.1,0.1,0,0.1c0,0-0.1,0.1-0.1,0l-2.1-1.2c0,0-0.1-0.1,0-0.1S97.1,181.4,97.2,181.4
					L97.2,181.4z"/>
				<path class="st1" d="M102.2,183.9l2.1,0.9c0,0,0.1,0.1,0,0.1s-0.1,0.1-0.1,0l-2.1-0.9c0,0-0.1-0.1,0-0.1
					C102.2,183.9,102.2,183.9,102.2,183.9L102.2,183.9z"/>
				<path class="st1" d="M107.5,186.1l2.1,0.8c0,0,0.1,0.1,0,0.1c0,0-0.1,0.1-0.1,0l-2.1-0.8C107.5,186.4,107.4,186.4,107.5,186.1
					L107.5,186.1L107.5,186.1z"/>
				<path class="st1" d="M113,188.1l2.1,0.5c0,0,0.1,0,0,0.1c0,0,0,0.1-0.1,0l-2-0.5C113,188.3,112.8,188.3,113,188.1L113,188.1
					L113,188.1z"/>
				<path class="st1" d="M118.7,189.7l2.4,0.5c0,0,0.1,0,0,0.1c0,0,0,0.1-0.1,0l-2.4-0.5C118.4,189.9,118.4,189.7,118.7,189.7
					C118.4,189.7,118.7,189.5,118.7,189.7L118.7,189.7z"/>
				<path class="st1" d="M124.2,190.7l2.4,0.4c0,0,0.1,0,0,0.1c0,0,0,0.1-0.1,0l-2.4-0.4C124.2,191.1,124.1,190.9,124.2,190.7
					C124.2,190.9,124.2,190.7,124.2,190.7L124.2,190.7z"/>
				<path class="st1" d="M130.1,191.4l2.4,0.1c0,0,0,0,0,0.1s0,0-0.1,0l-2.4-0.1C129.9,191.6,129.9,191.6,130.1,191.4
					C129.9,191.4,129.9,191.4,130.1,191.4L130.1,191.4z"/>
				<path class="st1" d="M135.8,191.8h2.4l0,0l0,0H135.8C135.8,192,135.8,192,135.8,191.8L135.8,191.8L135.8,191.8z"/>
				<path class="st1" d="M141.6,191.8l2.4-0.1l0,0l0,0L141.6,191.8C141.6,192,141.6,192,141.6,191.8L141.6,191.8L141.6,191.8z"/>
				<path class="st1" d="M147.4,191.4l2.4-0.1l0,0l0,0L147.4,191.4C147.3,191.6,147.3,191.4,147.4,191.4
					C147.3,191.4,147.3,191.4,147.4,191.4L147.4,191.4z"/>
				<path class="st1" d="M153.1,190.7l2.4-0.4l0,0l0,0L153.1,190.7L153.1,190.7L153.1,190.7L153.1,190.7z"/>
				<path class="st1" d="M158.7,189.3l2.1-0.5l0,0l0,0L158.7,189.3C158.7,189.5,158.7,189.5,158.7,189.3L158.7,189.3L158.7,189.3z"
					/>
				<path class="st1" d="M164.4,187.7l2.1-0.8l0,0l0,0L164.4,187.7C164.4,187.9,164.1,187.7,164.4,187.7
					C164.1,187.7,164.1,187.7,164.4,187.7L164.4,187.7z"/>
				<path class="st1" d="M169.6,185.7l2.1-0.9l0,0l0,0L169.6,185.7C169.8,185.7,169.6,185.7,169.6,185.7L169.6,185.7L169.6,185.7z"
					/>
				<path class="st1" d="M175,183.5l2.1-0.9l0,0l0,0L175,183.5L175,183.5L175,183.5L175,183.5z"/>
				<polygon class="st1" points="180.2,180.7 182,179.5 182,179.5 182,179.5 				"/>
				<polygon class="st1" points="184.9,177.7 186.9,176.2 186.9,176.2 				"/>
			</g>
		</g>
		<g>
			<polygon class="st1" points="139.5,106.6 186.8,177 136.6,108.6 			"/>
		</g>
		<g>
			<polygon class="st1" points="136.6,105.4 207,59.3 139.6,109.7 			"/>
		</g>
		<circle class="st1" cx="75.6" cy="72.9" r="69.1"/>
		<circle class="st1" cx="137.9" cy="107.5" r="45.6"/>
		<g>
			<g>
				<path class="st1" d="M176.1,82.9l1.3,1.6l0,0c0.1,0.1,0.1,0.4,0,0.5c-0.1,0.1-0.4,0.1-0.5,0l-1.6-1.6c-0.1-0.1-0.1-0.4,0-0.5
					C175.4,82.7,175.8,82.6,176.1,82.9L176.1,82.9L176.1,82.9z"/>
				<path class="st1" d="M179.5,87l1.6,1.3l0,0c0.1,0.1,0.1,0.4,0,0.5s-0.4,0.1-0.5,0l-1.7-1.3c-0.1-0.1-0.1-0.4,0-0.5
					C179,86.7,179.4,86.7,179.5,87L179.5,87L179.5,87z"/>
				<path class="st1" d="M183.5,90.3l1.6,1.2l0,0c0.1,0.1,0.1,0.4,0,0.5c-0.1,0.1-0.4,0.1-0.5,0.1l-1.7-1.2
					c-0.1-0.1-0.1-0.4-0.1-0.5C182.4,90.3,183.2,90,183.5,90.3L183.5,90.3L183.5,90.3z"/>
				<path class="st1" d="M187.7,93.2l1.7,0.9l0,0c0.1,0.1,0.1,0.4,0.1,0.5c-0.1,0.1-0.4,0.1-0.5,0.1l-2-0.9
					c-0.1-0.1-0.1-0.4-0.1-0.5C187.3,93.2,187.5,93,187.7,93.2L187.7,93.2L187.7,93.2z"/>
				<path class="st1" d="M192.4,95.5l2,0.8l0,0c0.1,0,0.4,0.4,0.1,0.5c0,0.1-0.4,0.4-0.5,0.1l-2-0.8c-0.1,0-0.4-0.4-0.1-0.5
					C192,95.5,192.2,95.3,192.4,95.5L192.4,95.5L192.4,95.5z"/>
				<path class="st1" d="M197.4,97.1l2,0.4l0,0c0.1,0,0.4,0.1,0.4,0.4s-0.1,0.4-0.4,0.4l-2.1-0.4c-0.1,0-0.4-0.1-0.4-0.4
					C196.9,97.1,197,97.1,197.4,97.1L197.4,97.1L197.4,97.1z"/>
				<path class="st1" d="M202.4,98l2.1,0.1l0,0c0.1,0,0.4,0.1,0.4,0.4c0,0.1-0.1,0.4-0.4,0.4l-2.1-0.1c-0.1,0-0.4-0.1-0.4-0.4
					C202.2,98,202.3,98,202.4,98L202.4,98L202.4,98z"/>
				<path class="st1" d="M207.7,98.3h2.1l0,0c0.1,0,0.4,0.1,0.4,0.4s-0.1,0.4-0.4,0.4l-2.1,0.1c-0.1,0-0.4-0.1-0.4-0.4
					C207.4,98.4,207.4,98.3,207.7,98.3L207.7,98.3L207.7,98.3z"/>
				<path class="st1" d="M212.8,97.9l2.1-0.4l0,0c0.1,0,0.4,0.1,0.4,0.4s0,0.4-0.4,0.4l-2.1,0.4c-0.1,0-0.4,0-0.4-0.4
					C212.4,98,212.7,97.9,212.8,97.9L212.8,97.9L212.8,97.9z"/>
				<path class="st1" d="M217.8,96.7l2-0.5l0,0c0.1,0,0.4,0,0.4,0.1c0,0.1,0,0.4-0.1,0.4l-2,0.5c-0.1,0-0.4,0-0.4-0.1
					C217.7,96.8,217.7,96.7,217.8,96.7L217.8,96.7L217.8,96.7z"/>
				<path class="st1" d="M222.7,94.9l2-0.9l0,0c0.1,0,0.4,0,0.4,0.1s0,0.4-0.1,0.4l-2,0.9c-0.1,0-0.4,0-0.4-0.1
					C222.6,95.1,222.6,94.9,222.7,94.9L222.7,94.9L222.7,94.9z"/>
				<path class="st1" d="M227.4,92.4l1.7-1.2l0,0c0.1-0.1,0.4,0,0.4,0.1c0.1,0.1,0,0.4,0,0.4l-1.7,1.2c-0.1,0.1-0.4,0-0.4-0.1
					C227.2,92.8,227.2,92.6,227.4,92.4L227.4,92.4L227.4,92.4z"/>
				<path class="st1" d="M231.7,89.5l1.6-1.3l0,0c0.1-0.1,0.4-0.1,0.4,0c0.1,0.1,0.1,0.4,0,0.4l-1.6,1.3c-0.1,0.1-0.4,0.1-0.4,0
					C231.7,89.6,231.5,89.5,231.7,89.5L231.7,89.5L231.7,89.5z"/>
				<path class="st1" d="M235.6,85.8l1.3-1.6l0,0c0.1-0.1,0.4-0.1,0.4,0c0.1,0.1,0.1,0.4,0,0.4l-1.3,1.6c-0.1,0.1-0.4,0.1-0.4,0
					C235.5,86.2,235.5,85.9,235.6,85.8L235.6,85.8L235.6,85.8z"/>
				<path class="st1" d="M238.9,81.8l1.2-1.7l0,0c0-0.1,0.1-0.1,0.4,0c0.1,0,0.1,0.1,0,0.4l-1.2,1.7c0,0.1-0.1,0.1-0.4,0
					C238.8,82.1,238.8,81.8,238.9,81.8L238.9,81.8L238.9,81.8z"/>
				<path class="st1" d="M241.7,77.4l0.9-2l0,0c0-0.1,0.1-0.1,0.4-0.1c0.1,0,0.1,0.1,0.1,0.4l-0.9,2c0,0.1-0.1,0.1-0.4,0.1
					C241.4,77.8,241.4,77.6,241.7,77.4L241.7,77.4L241.7,77.4z"/>
				<path class="st1" d="M243.5,72.5l0.5-2l0,0c0-0.1,0.1-0.1,0.4-0.1c0.1,0,0.1,0.1,0.1,0.4l-0.5,2c0,0.1-0.1,0.1-0.4,0.1
					C243.8,72.9,243.5,72.7,243.5,72.5L243.5,72.5L243.5,72.5z"/>
				<path class="st1" d="M245.1,67.5l0.4-2.1l0,0c0-0.1,0.1-0.1,0.4-0.1c0.1,0,0.1,0.1,0.1,0.4l-0.4,2.1c0,0.1-0.1,0.1-0.4,0.1
					C245.1,67.9,245.1,67.6,245.1,67.5L245.1,67.5L245.1,67.5z"/>
				<path class="st1" d="M245.9,62.5l0.1-2.1l0,0c0-0.1,0.1-0.1,0.1-0.1c0.1,0,0.1,0.1,0.1,0.1l-0.1,2.1c0,0.1-0.1,0.1-0.1,0.1
					S245.9,62.6,245.9,62.5L245.9,62.5L245.9,62.5z"/>
				<path class="st1" d="M245.9,57.2l-0.1-2.1l0,0c0-0.1,0.1-0.1,0.1-0.1c0.1,0,0.1,0,0.1,0.1l0.1,2.1c0,0.1-0.1,0.1-0.1,0.1
					C246.1,57.6,245.9,57.3,245.9,57.2L245.9,57.2L245.9,57.2z"/>
				<path class="st1" d="M245.3,51.9l-0.4-2.1l0,0c0-0.1,0-0.1,0.1-0.4c0.1,0,0.1,0,0.4,0.1l0.4,2.1c0,0.1,0,0.1-0.1,0.4
					C245.5,52.3,245.3,52.1,245.3,51.9L245.3,51.9L245.3,51.9z"/>
				<path class="st1" d="M244.2,46.8l-0.8-2l0,0c0-0.1,0-0.1,0.1-0.4c0.1-0.1,0.1,0,0.4,0.1l0.8,2c0,0.1,0,0.1-0.1,0.4
					C244.3,47.2,244.2,47.1,244.2,46.8L244.2,46.8L244.2,46.8z"/>
				<path class="st1" d="M242,42.2l-0.9-2l0,0c0-0.1,0-0.1,0.1-0.4c0.1,0,0.1,0,0.4,0.1l0.9,2c0,0.1,0,0.1-0.1,0.4
					C242.3,42.2,242.2,42.2,242,42.2L242,42.2L242,42.2z"/>
				<path class="st1" d="M239.4,37.5l-1.2-1.7l0,0c0-0.1,0-0.1,0-0.4c0.1,0,0.1,0,0.4,0l1.2,1.7c0,0.1,0,0.1,0,0.4
					C239.7,37.7,239.7,37.7,239.4,37.5L239.4,37.5L239.4,37.5z"/>
				<path class="st1" d="M236.4,33.4l-1.3-1.6l0,0c0,0,0-0.1,0-0.4c0,0,0.1,0,0.4,0l1.3,1.6c0,0,0,0.1,0,0.4
					C236.5,33.4,236.4,33.4,236.4,33.4L236.4,33.4L236.4,33.4z"/>
				<path class="st1" d="M232.7,29.7l-1.6-1.3l0,0c0,0-0.1-0.1,0-0.1c0,0,0.1-0.1,0.1,0l1.6,1.3c0,0,0.1,0.1,0,0.4
					C232.8,29.7,232.7,29.7,232.7,29.7L232.7,29.7L232.7,29.7z"/>
				<path class="st1" d="M228.4,26.7l-1.7-1.2l0,0c0,0-0.1-0.1,0-0.1c0,0,0.1-0.1,0.1,0l1.7,1.2c0,0,0.1,0.1,0,0.1
					C228.8,26.7,228.6,26.7,228.4,26.7L228.4,26.7L228.4,26.7z"/>
				<path class="st1" d="M223.9,23.9l-2-0.8l0,0c0,0-0.1-0.1,0-0.1c0,0,0.1-0.1,0.1,0l2,0.8c0,0,0.1,0.1,0,0.1
					C224.1,23.9,224.1,24,223.9,23.9L223.9,23.9L223.9,23.9z"/>
				<path class="st1" d="M219,21.9l-2-0.5l-0.1-0.1l0.1-0.1l2,0.5l0.1,0.1C219.3,21.9,219.3,21.9,219,21.9L219,21.9z"/>
				<path class="st1" d="M214,20.8l-2.1-0.4c0,0-0.1,0-0.1-0.1l0.1-0.1l2.1,0.4l0.1,0.1C214.2,20.6,214.2,20.8,214,20.8L214,20.8z"
					/>
				<path class="st1" d="M208.7,20h-2.1c0,0-0.1,0-0.1-0.1c0,0,0-0.1,0.1-0.1h2.1C208.9,19.8,208.9,19.8,208.7,20
					C208.9,20,208.9,20,208.7,20L208.7,20z"/>
				<path class="st1" d="M203.5,20.2l-2.1,0.1c0,0-0.1,0-0.1-0.1c0,0,0-0.1,0.1-0.1l2.1-0.1C203.6,19.8,203.6,20,203.5,20.2
					C203.6,20,203.6,20.2,203.5,20.2L203.5,20.2z"/>
				<path class="st1" d="M198.5,21l-2,0.5h-0.1c0,0,0-0.1,0.1-0.1l2.1-0.5C198.5,20.6,198.5,20.8,198.5,21
					C198.5,20.8,198.5,21,198.5,21L198.5,21z"/>
				<path class="st1" d="M193.3,22.3l-2,0.8h-0.1V23l2-0.8C193.3,22.2,193.3,22.2,193.3,22.3C193.6,22.3,193.3,22.3,193.3,22.3
					L193.3,22.3z"/>
				<path class="st1" d="M188.5,24.4l-1.7,0.9h-0.1v-0.1l1.7-0.9C188.5,24.3,188.5,24.3,188.5,24.4
					C188.7,24.4,188.7,24.4,188.5,24.4L188.5,24.4z"/>
				<path class="st1" d="M184,27.2c-0.5,0.4-1.2,0.8-1.7,1.2h-0.1v-0.1C182.8,28,183.5,27.6,184,27.2C184,26.9,184,26.9,184,27.2
					C184.2,27.2,184.2,27.2,184,27.2L184,27.2z"/>
				<path class="st1" d="M180.2,30.6l-1.6,1.6h-0.1v-0.1L180.2,30.6C179.9,30.5,179.9,30.5,180.2,30.6
					C180.2,30.5,180.2,30.5,180.2,30.6L180.2,30.6z"/>
				<path class="st1" d="M176.5,34.4l-1.3,1.7c0,0,0,0-0.1,0c0,0,0,0,0-0.1L176.5,34.4C176.2,34.2,176.5,34.2,176.5,34.4L176.5,34.4
					L176.5,34.4z"/>
				<path class="st1" d="M173.3,38.7l-0.9,1.7c0,0,0,0-0.1,0c0,0,0,0,0-0.1L173.3,38.7C173.3,38.7,173.3,38.5,173.3,38.7
					C173.3,38.7,173.5,38.7,173.3,38.7L173.3,38.7z"/>
				<path class="st1" d="M171,43.4l-0.8,2l0,0l0,0L171,43.4C170.8,43.4,170.8,43.1,171,43.4L171,43.4L171,43.4z"/>
				<path class="st1" d="M169.2,48.1l-0.5,2l0,0l0,0L169.2,48.1C169,48.1,169,48.1,169.2,48.1L169.2,48.1L169.2,48.1z"/>
				<path class="st1" d="M168.1,53.4l-0.1,2.1l0,0l0,0L168.1,53.4C167.8,53.3,167.8,53.3,168.1,53.4
					C168.1,53.3,168.1,53.4,168.1,53.4L168.1,53.4z"/>
				<path class="st1" d="M167.7,58.7v2.1l0,0l0,0V58.7C167.4,58.5,167.4,58.5,167.7,58.7C167.4,58.5,167.7,58.5,167.7,58.7
					L167.7,58.7z"/>
				<path class="st1" d="M167.8,63.9l0.4,2.1l0,0l0,0L167.8,63.9C167.7,63.9,167.8,63.8,167.8,63.9
					C167.8,63.8,167.8,63.8,167.8,63.9L167.8,63.9z"/>
				<path class="st1" d="M168.9,69.1l0.5,2l0,0l0,0L168.9,69.1C168.6,69.1,168.9,69.1,168.9,69.1L168.9,69.1L168.9,69.1z"/>
				<path class="st1" d="M170.4,74.1l0.8,2l0,0l0,0L170.4,74.1L170.4,74.1L170.4,74.1L170.4,74.1z"/>
				<polygon class="st1" points="172.8,78.8 173.9,80.5 173.9,80.5 173.9,80.5 				"/>
			</g>
		</g>
		<circle class="st1" cx="186.8" cy="177" r="12.9"/>
		<circle class="st1" cx="207" cy="59.3" r="17.4"/>
		<g>
			<g>
				<path class="st0" d="M13.4,60.5c0-2.4,1.7-3.7,3.7-3.7h18.8c2.4,0,3.7,1.3,3.7,3.4s-1.3,3.4-3.7,3.4H20.7v5.8h6.6
					c2.4,0,3.7,1.3,3.7,3.4s-1.3,3.4-3.7,3.4h-6.6v9c0,2.5-1.6,3.8-3.7,3.8s-3.6-1.2-3.6-3.7V60.5z"/>
				<path class="st0" d="M39.4,76.2c0,4.2,3,6.6,6.6,6.6c3.7,0,6.8-2.4,6.8-6.6V60.3c0-2.5,1.6-3.8,3.7-3.8s3.7,1.3,3.7,3.8v15.8
					c0,8.6-5.8,13.8-14.2,13.8c-8.2,0-14.2-5.3-14.2-13.8V60.3c0-2.5,1.6-3.7,3.7-3.7s3.7,0.9,3.7,3.7L39.4,76.2L39.4,76.2z"/>
				<path class="st0" d="M83,60.5c0-2.4,1.7-3.7,3.7-3.7h8.7c9.7,0,15.2,7.8,15.2,16.2c0,10.7-7.2,16.6-15.2,16.6h-9
					c-2,0-3.7-1.3-3.7-3.7V60.5H83z M90.4,82.5h3.8c5.8,0,8.6-3.8,8.6-9.7c0-5.4-2.8-9.1-8.2-9.1h-4.2
					C90.4,63.7,90.4,82.5,90.4,82.5z"/>
				<path class="st0" d="M117.2,62.9c1.3-3.7,2.5-6.8,6.2-6.8c3.8,0,4.9,3,6.2,6.8l7.2,19.2c0.9,2.5,1.2,3.4,1.2,4.6
					c0,1.7-1.6,3-3.4,3c-2.4,0-3-1.6-3.8-3.7l-0.9-2.9h-12.2l-0.9,2.9c-0.8,2.1-1.6,3.7-3.8,3.7c-2.1,0-3.4-1.2-3.4-3
					c0-1.2,0.1-2,1.2-4.6L117.2,62.9z M123.7,64.2L123.7,64.2l-4.1,11.9h7.8L123.7,64.2z"/>
			</g>
			<g>
				<path class="st0" d="M61.8,60.3c0-2.4,1.6-3.4,3.4-3.4c0.8,0,2.4,0.8,2.9,1.6L82.7,78l0,0V60.3c0-2.4,1.6-3.4,3.4-3.4
					c2,0,3.4,1.3,3.4,3.4v25.5c0,2.4-1.6,3.4-3.4,3.4c-0.8,0-2.4-0.1-2.9-0.9L68.7,69.2l0,0v17.1c0,2.4-1.6,3.4-3.4,3.4
					c-1.9,0-3.4-1.3-3.4-3.4C61.8,86.3,61.8,60.3,61.8,60.3z"/>
			</g>
		</g>
		<g>
			<path class="st0" d="M61.4,95.7c0.8-3.8,3-4.6,4.9-4.6c3.7,0,4.5,2.1,6.4,8l3.7,11.3l0,0L80.1,99c2-5.8,2.8-8,6.4-8
				c2,0,4.2,0.8,4.9,4.6l2.9,16.7c0.5,3.3,1.2,7.2,1.2,8.2c0,1.6-1.3,3.4-3.4,3.4c-3.3,0-3.8-2.4-4.2-4.9l-2.1-14.5l0,0l-5,15.9
				c-0.9,2.5-1.9,3.4-4.2,3.4c-2.4,0-3.3-0.9-4.1-3.3l-5-15.9l0,0l-2.1,14.3c-0.4,2.5-0.9,4.9-4.2,4.9c-2.1,0-3.4-2-3.4-3.4
				c0-1.2,0.5-4.9,1.2-8.2L61.4,95.7z"/>
			<path class="st0" d="M96.7,97.2c1.3-3.7,2.5-6.8,6.2-6.8c3.8,0,4.9,3,6.2,6.8l7.2,19.2c0.9,2.5,1.2,3.4,1.2,4.6
				c0,1.7-1.6,3-3.4,3c-2.4,0-3-1.6-3.8-3.7l-0.9-2.9H97.1l-0.9,2.9c-0.8,2.1-1.6,3.7-3.8,3.7c-2.1,0-3.4-1.2-3.4-3
				c0-1.2,0.1-2,1.2-4.6L96.7,97.2z M103,98.8L103,98.8l-4.1,11.9h7.8L103,98.8z"/>
			<path class="st0" d="M119.5,98h-4.1c-2.5,0-3.8-1.3-3.8-3.4c0-2.1,1.3-3.4,3.8-3.4h19.5c2.5,0,3.8,1.3,3.8,3.4
				c0,2.1-1.3,3.4-3.8,3.4h-8v22c0,2.5-1.6,3.8-3.7,3.8c-2.1,0-3.7-1.3-3.7-3.8C119.5,120,119.5,98,119.5,98z"/>
			<path class="st0" d="M138.5,120.3c0,2.5-1.6,3.8-3.7,3.8c-2.1,0-3.7-1.3-3.7-3.8V94.9c0-2.5,1.6-3.7,3.7-3.7
				c2.1,0,3.8,0.9,3.8,3.7v25.3H138.5z"/>
			<path class="st0" d="M155.8,90.4c4.5,0,9.9,1.3,9.9,5.3c0,1.7-1.3,3.4-3,3.4s-3.4-1.6-6.4-1.6c-6.1,0-8.4,4.9-8.4,9.9
				c0,5.3,2.8,9.5,7.8,9.5c4.6,0,5.4-1.6,7.2-1.6c2.9,0,3.3,2.5,3.3,3.4c0,4.1-6.2,5.4-10.3,5.4c-10.3,0-15.9-7.8-15.9-17.1
				C139.5,97.6,145.8,90.4,155.8,90.4z"/>
			<path class="st0" d="M163.2,115.4c1.7,0,4.2,2,8,2c2.9,0,3.8-1.6,3.8-3c0-2.5-2.9-2.9-7-4.2c-3.8-1.2-7.8-2.9-7.8-8.7
				c0-7,5.4-10.5,11.7-10.5c6.1,0,9.3,2.1,9.3,4.9c0,2-1.3,3.4-3.3,3.4c-2.4,0-3-1.2-6.2-1.2c-2,0-3.3,0.9-3.3,2.8
				c0,2,1.7,2.1,7,3.8c4.1,1.3,8,3.3,8,9.5c0,7.6-5.4,10.9-12.5,10.9c-4.2,0-10.9-1.7-10.9-5.4C159.9,117.3,161.1,115.4,163.2,115.4
				z"/>
		</g>
	</g>
</g>
</svg>
